<svg id="Layer_1" enable-background="new 0 0 512 512" height="512" viewBox="0 0 512 512" width="512" xmlns="http://www.w3.org/2000/svg"><g><path d="m256 303.133c-8.284 0-15-6.716-15-15v-273.133c0-8.284 6.716-15 15-15s15 6.716 15 15v273.133c0 8.284-6.716 15-15 15z" fill="#143c64"/><path d="m432.733 265.1h-9.1v-9.1c0-8.284-6.716-15-15-15s-15 6.716-15 15v9.1h-9.1c-8.284 0-15 6.716-15 15s6.716 15 15 15h9.1v9.1c0 8.284 6.716 15 15 15s15-6.716 15-15v-9.1h9.1c8.284 0 15-6.716 15-15s-6.715-15-15-15z" fill="#ebe6e6"/><path d="m127.467 24.1h-9.1v-9.1c0-8.284-6.716-15-15-15s-15 6.716-15 15v9.1h-9.1c-8.284 0-15 6.716-15 15s6.716 15 15 15h9.1v9.1c0 8.284 6.716 15 15 15s15-6.716 15-15v-9.1h9.1c8.284 0 15-6.716 15-15s-6.716-15-15-15z" fill="#ebe6e6"/><path d="m400.6 511.952h-36.375c-19.974 0-38.503-7.953-51.992-21.637-23.356 23.693-51.855 21.637-56.085 21.637-4.375 0-32.981 2.102-56.382-21.637-13.488 13.684-32.018 21.637-51.992 21.637h-36.374c-5.115 0-9.878-2.607-12.635-6.916s-3.128-9.725-.985-14.37l76.205-165.111c14.714-31.875 46.904-52.471 82.007-52.471 35.12 0 67.309 20.596 82.023 52.471l76.205 165.111c2.144 4.645 1.772 10.061-.985 14.37s-7.52 6.916-12.635 6.916z" fill="#ffd741"/><g><path d="m71.229 319.196c-6.766 0-12.486-4.478-14.355-10.632-7.36-21.672-24.631-38.929-46.313-46.266-6.116-1.894-10.561-7.594-10.561-14.331 0-6.766 4.478-12.486 10.633-14.355 21.672-7.359 38.928-24.631 46.266-46.314 1.894-6.115 7.594-10.56 14.331-10.56 6.765 0 12.484 4.476 14.354 10.629 7.358 21.674 24.631 38.932 46.314 46.27 6.117 1.894 10.562 7.594 10.562 14.331 0 6.766-4.478 12.486-10.633 14.355-21.672 7.359-38.928 24.63-46.266 46.313-1.894 6.115-7.594 10.56-14.332 10.56z" fill="#fff5eb"/><path d="m71.229 319.196v-142.459c6.765 0 12.484 4.476 14.354 10.629 7.358 21.674 24.631 38.932 46.314 46.27 6.117 1.894 10.562 7.594 10.562 14.331 0 6.766-4.478 12.486-10.633 14.355-21.672 7.359-38.928 24.63-46.266 46.313-1.893 6.116-7.593 10.561-14.331 10.561z" fill="#ebe6e6"/></g><path d="m400.6 511.952h-36.375c-19.974 0-38.503-7.953-51.992-21.637-23.356 23.693-51.855 21.637-56.085 21.637l-.157-238.867c35.12 0 67.309 20.596 82.023 52.471l76.205 165.111c2.144 4.645 1.772 10.061-.985 14.37s-7.519 6.915-12.634 6.915z" fill="#ffb400"/><path d="m147.277 383.419h217.446c-4.691-10.164-9.366-20.292-13.847-30h-189.752c-4.481 9.708-9.156 19.836-13.847 30z" fill="#fff578"/><path d="m256.064 383.419h108.657l-13.846-30h-94.831z" fill="#ffd741"/><g><path d="m440.771 142.463c-6.766 0-12.486-4.478-14.355-10.633-7.359-21.672-24.63-38.928-46.313-46.266-6.116-1.894-10.562-7.594-10.562-14.331 0-6.766 4.478-12.486 10.633-14.355 21.672-7.359 38.928-24.63 46.266-46.313 1.894-6.116 7.594-10.562 14.331-10.562 6.766 0 12.486 4.478 14.355 10.632 7.36 21.672 24.631 38.929 46.313 46.266 6.116 1.895 10.561 7.595 10.561 14.332 0 6.766-4.478 12.486-10.633 14.355-21.672 7.359-38.928 24.631-46.266 46.313-1.893 6.117-7.594 10.562-14.33 10.562z" fill="#fff5eb"/><path d="m440.771 142.463v-142.459c6.765 0 12.484 4.476 14.354 10.629 7.358 21.674 24.631 38.932 46.314 46.27 6.116 1.893 10.561 7.593 10.561 14.33 0 6.766-4.478 12.486-10.633 14.355-21.672 7.359-38.928 24.63-46.266 46.313-1.893 6.117-7.593 10.562-14.33 10.562z" fill="#ebe6e6"/></g></g></svg>