<?xml version="1.0" encoding="UTF-8" standalone="no"?><!-- Generator: Gravit.io --><svg xmlns="http://www.w3.org/2000/svg" xmlns:xlink="http://www.w3.org/1999/xlink" style="isolation:isolate" viewBox="0 0 512.003 512.003" width="512.003pt" height="512.003pt"><defs><clipPath id="_clipPath_sdbcFaL1FtmaO7yAEDAKI1pF1Hx3T6kk"><rect width="512.003" height="512.003"/></clipPath></defs><g clip-path="url(#_clipPath_sdbcFaL1FtmaO7yAEDAKI1pF1Hx3T6kk)"><path d=" M 512.002 256 C 512.002 248.585 505.991 242.573 498.575 242.573 L 477.448 242.573 L 497.561 222.46 C 502.805 217.216 502.805 208.714 497.561 203.471 C 492.317 198.228 483.816 198.227 478.572 203.471 L 439.469 242.574 L 419.594 242.574 L 439.707 222.461 C 444.951 217.217 444.951 208.715 439.707 203.472 C 434.462 198.228 425.961 198.228 420.718 203.472 L 381.615 242.575 L 288.418 242.575 L 354.319 176.674 L 409.618 176.674 C 417.034 176.674 423.045 170.663 423.045 163.247 C 423.045 155.831 417.034 149.82 409.618 149.82 L 381.174 149.82 L 395.228 135.766 L 450.527 135.766 C 457.943 135.766 463.954 129.755 463.954 122.339 C 463.954 114.923 457.943 108.912 450.527 108.912 L 422.083 108.912 L 437.023 93.972 C 442.267 88.728 442.267 80.226 437.023 74.983 C 431.779 69.739 423.277 69.739 418.034 74.983 L 403.094 89.923 L 403.094 61.475 C 403.094 54.059 397.083 48.048 389.667 48.048 C 382.251 48.048 376.24 54.059 376.24 61.475 L 376.24 116.774 L 362.186 130.828 L 362.186 102.385 C 362.186 94.969 356.175 88.958 348.759 88.958 C 341.343 88.958 335.332 94.969 335.332 102.385 L 335.332 157.684 L 269.431 223.585 L 269.431 130.388 L 308.534 91.285 C 313.778 86.041 313.778 77.539 308.534 72.296 C 303.289 67.052 294.788 67.052 289.545 72.296 L 269.431 92.409 L 269.431 72.533 L 308.534 33.43 C 313.778 28.186 313.778 19.684 308.534 14.441 C 303.289 9.197 294.788 9.197 289.545 14.441 L 269.431 34.554 L 269.431 13.427 C 269.429 6.011 263.418 0 256.002 0 C 248.587 0 242.575 6.011 242.575 13.427 L 242.575 34.554 L 222.462 14.441 C 217.218 9.197 208.717 9.197 203.473 14.441 C 198.229 19.685 198.229 28.187 203.473 33.43 L 242.576 72.533 L 242.576 92.409 L 222.463 72.296 C 217.219 67.052 208.718 67.052 203.474 72.296 C 198.23 77.54 198.23 86.042 203.474 91.285 L 242.577 130.388 L 242.577 223.585 L 176.676 157.684 L 176.676 102.384 C 176.676 94.968 170.665 88.957 163.249 88.957 C 155.833 88.957 149.822 94.968 149.822 102.384 L 149.822 130.828 L 135.768 116.774 L 135.768 61.474 C 135.768 54.058 129.757 48.047 122.341 48.047 C 114.925 48.047 108.914 54.058 108.914 61.474 L 108.914 89.918 L 93.972 74.981 C 88.728 69.737 80.226 69.737 74.983 74.981 C 69.739 80.225 69.739 88.727 74.983 93.97 L 89.923 108.91 L 61.477 108.91 C 54.061 108.91 48.05 114.921 48.05 122.337 C 48.05 129.753 54.061 135.764 61.477 135.764 L 116.776 135.764 L 130.83 149.818 L 102.387 149.818 C 94.971 149.818 88.96 155.829 88.96 163.245 C 88.96 170.661 94.971 176.672 102.387 176.672 L 157.686 176.672 L 223.587 242.573 L 130.39 242.573 L 91.286 203.47 C 86.042 198.226 77.541 198.226 72.297 203.47 C 67.053 208.714 67.053 217.216 72.297 222.459 L 92.41 242.572 L 72.535 242.572 L 33.432 203.47 C 28.188 198.226 19.687 198.226 14.443 203.47 C 9.199 208.714 9.199 217.216 14.443 222.459 L 34.556 242.572 L 13.429 242.572 C 6.013 242.572 0.002 248.584 0.002 255.999 C 0.002 263.415 6.013 269.426 13.429 269.426 L 34.557 269.426 L 14.444 289.54 C 9.2 294.784 9.2 303.286 14.444 308.529 C 17.066 311.151 20.502 312.462 23.938 312.462 C 27.374 312.462 30.811 311.151 33.432 308.529 L 72.535 269.426 L 92.411 269.426 L 72.298 289.54 C 67.054 294.784 67.054 303.286 72.298 308.529 C 74.92 311.151 78.356 312.462 81.792 312.462 C 85.228 312.462 88.665 311.151 91.286 308.529 L 130.389 269.426 L 223.586 269.426 L 157.685 335.327 L 102.386 335.327 C 94.97 335.327 88.959 341.338 88.959 348.754 C 88.959 356.17 94.97 362.181 102.386 362.181 L 130.83 362.181 L 116.776 376.235 L 61.476 376.235 C 54.06 376.235 48.049 382.246 48.049 389.662 C 48.049 397.078 54.06 403.089 61.476 403.089 L 89.92 403.089 L 74.98 418.029 C 69.736 423.273 69.736 431.774 74.98 437.018 C 77.602 439.64 81.038 440.951 84.474 440.951 C 87.91 440.951 91.347 439.64 93.968 437.018 L 108.908 422.078 L 108.908 450.522 C 108.908 457.938 114.919 463.949 122.335 463.949 C 129.751 463.949 135.762 457.938 135.762 450.522 L 135.762 395.223 L 149.816 381.169 L 149.816 409.613 C 149.816 417.029 155.827 423.04 163.243 423.04 C 170.659 423.04 176.67 417.029 176.67 409.613 L 176.67 354.314 L 242.571 288.413 L 242.571 381.61 L 203.468 420.713 C 198.224 425.957 198.224 434.459 203.468 439.702 C 208.712 444.946 217.214 444.946 222.457 439.702 L 242.57 419.589 L 242.57 439.464 L 203.467 478.567 C 198.223 483.811 198.223 492.313 203.467 497.556 C 206.089 500.178 209.525 501.489 212.961 501.489 C 216.398 501.489 219.834 500.178 222.455 497.556 L 242.568 477.443 L 242.568 498.57 C 242.568 505.986 248.58 511.997 255.995 511.997 C 263.411 511.997 269.422 505.986 269.422 498.57 L 269.422 477.443 L 289.536 497.557 C 294.78 502.801 303.282 502.801 308.525 497.557 C 313.768 492.313 313.769 483.812 308.525 478.568 L 269.422 439.465 L 269.422 419.589 L 289.536 439.703 C 292.158 442.325 295.595 443.636 299.03 443.636 C 302.465 443.636 305.903 442.325 308.524 439.703 C 313.768 434.459 313.768 425.958 308.524 420.714 L 269.421 381.611 L 269.421 288.42 L 335.322 354.321 L 335.322 409.62 C 335.322 417.036 341.333 423.047 348.749 423.047 C 356.165 423.047 362.176 417.036 362.176 409.62 L 362.176 381.176 L 376.23 395.23 L 376.23 450.529 C 376.23 457.945 382.241 463.956 389.657 463.956 C 397.073 463.956 403.084 457.945 403.084 450.529 L 403.084 422.085 L 418.024 437.025 C 420.646 439.647 424.083 440.958 427.518 440.958 C 430.955 440.958 434.391 439.647 437.012 437.025 C 442.256 431.781 442.256 423.28 437.012 418.036 L 422.072 403.096 L 450.516 403.096 C 457.932 403.096 463.943 397.085 463.943 389.669 C 463.943 382.253 457.932 376.242 450.516 376.242 L 395.217 376.242 L 381.163 362.188 L 409.607 362.188 C 417.023 362.188 423.034 356.177 423.034 348.761 C 423.034 341.345 417.023 335.334 409.607 335.334 L 354.308 335.334 L 288.407 269.433 L 381.604 269.433 L 420.707 308.536 C 423.329 311.158 426.766 312.469 430.201 312.469 C 433.636 312.469 437.074 311.158 439.695 308.536 C 444.939 303.292 444.939 294.791 439.695 289.547 L 419.581 269.433 L 439.457 269.433 L 478.56 308.536 C 481.182 311.158 484.619 312.469 488.054 312.469 C 491.49 312.469 494.927 311.158 497.548 308.536 C 502.792 303.292 502.792 294.791 497.548 289.547 L 477.434 269.433 L 498.561 269.433 C 505.99 269.427 512.002 263.416 512.002 256 Z " fill="rgb(128,199,234)"/><g><path d=" M 377.327 341.171 L 505.819 212.678 C 514.061 204.438 514.064 191.096 505.82 182.855 C 497.579 174.612 484.239 174.61 475.996 182.854 L 347.503 311.347 L 219.01 182.855 C 210.77 174.613 197.428 174.61 189.186 182.853 C 180.944 191.095 180.943 204.435 189.186 212.677 L 317.678 341.171 L 189.185 469.664 C 180.962 477.887 180.962 491.266 189.185 499.487 C 197.426 507.73 210.767 507.731 219.009 499.487 L 347.502 370.994 L 475.994 499.486 C 484.234 507.728 497.577 507.729 505.818 499.487 C 514.06 491.246 514.062 477.905 505.818 469.662 L 377.327 341.171 Z " fill="rgb(255,121,118)"/><path d=" M 377.327 341.171 L 505.819 212.678 C 514.061 204.438 514.064 191.096 505.82 182.855 C 497.579 174.612 484.239 174.61 475.996 182.854 L 347.503 311.346 L 347.503 370.995 L 475.996 499.488 C 484.235 507.73 497.578 507.731 505.819 499.489 C 514.061 491.248 514.063 477.907 505.819 469.664 L 377.327 341.171 Z " fill="rgb(255,87,82)"/></g></g></svg>