<svg height="512" viewBox="0 0 50 58" width="512" xmlns="http://www.w3.org/2000/svg"><g id="Page-1" fill="none" fill-rule="evenodd"><g id="019---Diving-Vest" fill-rule="nonzero"><path id="Shape" d="m35.51 2.64c-1.69 1.46-4.96 3.36-10.51 3.36s-8.82-1.9-10.51-3.36v9.267c0 5.7989899 4.7010101 10.5 10.5 10.5 5.7907988.0000116 10.4884184-4.6882128 10.5-10.479z" fill="#285680"/><path id="Shape" d="m46.83 28.29c-3.94-1.84-6.83-6.34-6.83-12.29.1450205-5.0558007.8152903-10.08282454 2-15-1.9422529-.61703127-3.9626155-.95375836-6-1 0 0-3 20-11 20s-11-20-11-20c-2.0373845.04624164-4.05774708.38296873-6 1 1.18470969 4.91717546 1.85497954 9.9441993 2 15 0 5.95-2.89 10.45-6.83 12.29-1.35063762.6623046-2.1964142 2.0459483-2.17 3.55v24.16c.0032948 1.1032019.89679813 1.9967052 2 2h18c2.209139 0 4-1.790861 4-4 0 2.209139 1.790861 4 4 4h18c1.1032019-.0032948 1.9967052-.8967981 2-2v-24.16c.0264142-1.5040517-.8193624-2.8876954-2.17-3.55z" fill="#2980ba"/><path id="Shape" d="m25 54c0 2.209139 1.790861 4 4 4h18c1.1032019-.0032948 1.9967052-.8967981 2-2v-24.16c.0264142-1.5040517-.8193624-2.8876954-2.17-3.55-3.94-1.84-6.83-6.34-6.83-12.29.1450205-5.0558007.8152903-10.08282454 2-15-1.9422529-.61703127-3.9626155-.95375836-6-1 0 0-3 20-11 20z" fill="#3b97d3"/><path id="Shape" d="m30 34h19c.5522847 0 1 .4477153 1 1v4c0 .5522847-.4477153 1-1 1h-19z" fill="#84b5cb"/><path id="Shape" d="m20 34h-19c-.55228475 0-1 .4477153-1 1v4c0 .5522847.44771525 1 1 1h19z" fill="#84b5cb"/><rect id="Rectangle-path" fill="#9fc9d3" height="8" rx="1" width="10" x="20" y="33"/><path id="Shape" d="m30 46h19c.5522847 0 1 .4477153 1 1v4c0 .5522847-.4477153 1-1 1h-19z" fill="#84b5cb"/><path id="Shape" d="m20 46h-19c-.55228475 0-1 .4477153-1 1v4c0 .5522847.44771525 1 1 1h19z" fill="#84b5cb"/><rect id="Rectangle-path" fill="#9fc9d3" height="8" rx="1" width="10" x="20" y="45"/></g></g></svg>