<?xml version="1.0" encoding="UTF-8" standalone="no"?><!-- Generator: Gravit.io --><svg xmlns="http://www.w3.org/2000/svg" xmlns:xlink="http://www.w3.org/1999/xlink" style="isolation:isolate" viewBox="0 0 496.2 496.2" width="496.2pt" height="496.2pt"><defs><clipPath id="_clipPath_pgIp1mA4MzTHcbsawxVoLtapSlM4X2om"><rect width="496.2" height="496.2"/></clipPath></defs><g clip-path="url(#_clipPath_pgIp1mA4MzTHcbsawxVoLtapSlM4X2om)"><path d=" M 248.1 0 C 111.1 0 0 111.1 0 248.1 C 0 385.1 111.1 496.2 248.1 496.2 C 385.1 496.2 496.2 385.1 496.2 248.1 C 496.2 111.1 385.1 0 248.1 0 Z " fill="rgb(196,88,88)"/><path d=" M 248.1 496.2 C 318.3 496.2 381.7 467 426.8 420.2 C 424 405.1 421.2 391.3 418.5 382.8 C 410 355.5 337.3 333.5 247.7 333.5 C 158.1 333.5 86.2 355.5 77.7 382.8 C 75.1 391.3 72.2 405 69.4 420.2 C 114.5 467 177.9 496.2 248.1 496.2 Z " fill="rgb(107,70,52)"/><path d=" M 248.1 61.6 C 199.4 61.6 159.8 82.8 159.8 175.2 C 159.8 206.5 166 231 175.3 249.9 C 195.7 291.5 231 306 248.1 306 C 265.2 306 300.5 291.5 320.9 249.9 C 330.2 231 336.4 206.5 336.4 175.2 C 336.4 82.8 296.8 61.6 248.1 61.6 Z " fill="rgb(219,154,110)"/><g><path d=" M 306.2 178.8 C 299.4 171.9 287.3 170.8 280.6 170.8 C 279.5 170.8 278.4 170.8 277.3 170.9 C 276.9 170.9 276.3 171.8 276.3 171.8 C 276.3 171.8 275.8 170.9 275.6 171 C 270.3 171.4 266 172.3 263.8 173.2 L 263.5 173.3 C 261 174.3 257.8 175.5 259 179.9 C 259.6 182.1 261 183.4 262.9 183.4 C 263.3 183.4 263.7 183.3 264.2 183.2 C 264.8 183 265.5 182.7 266.2 182.4 C 266.6 182.2 267 182 267.4 181.9 C 267.9 181.7 268.4 181.5 268.9 181.4 C 269.5 181.2 270.8 178.9 270.8 178.9 C 270.8 178.9 272.2 180.4 273 180.3 C 276.1 179.6 279.3 179.3 282.8 179.3 C 292.1 179.3 299.7 181.7 301.6 182.5 C 303 183.1 304 183.4 304.8 183.4 C 306.4 183.4 306.9 182.4 307.1 181.9 C 307.4 180.9 307.1 179.7 306.2 178.8 Z " fill="rgb(71,43,20)"/><path d=" M 232.8 173.3 L 232.5 173.2 C 231.4 172.8 229.7 172.3 227.7 171.9 C 226.9 171.8 225.3 173.1 225.3 173.1 C 225.3 173.1 224.6 171.4 224.3 171.3 C 221.7 171 218.8 170.7 215.6 170.7 C 209 170.7 196.9 171.7 190 178.7 C 189.1 179.6 188.8 180.8 189.1 181.8 C 189.3 182.2 189.8 183.3 191.4 183.3 C 192.2 183.3 193.3 183 194.6 182.4 C 196.5 181.6 204.1 179.2 213.4 179.2 C 219.1 179.2 224.2 180.1 228.8 181.8 C 229.2 181.9 229.6 182.1 230 182.3 C 230.7 182.6 231.4 182.9 232 183.1 C 232.5 183.2 232.9 183.3 233.3 183.3 C 235.2 183.3 236.6 182 237.2 179.8 C 238.5 175.6 235.3 174.3 232.8 173.3 Z " fill="rgb(71,43,20)"/></g><g><path d=" M 336.4 157.2 C 336.4 64.8 296.9 43.6 248.1 43.6 C 199.4 43.6 159.8 64.8 159.8 157.2 L 255.4 157.2 L 273.4 142.8 L 268.4 157.2 L 336.4 157.2 L 336.4 157.2 Z " fill="rgb(96,47,15)"/><path d=" M 180.1 155.1 L 165.5 140.8 C 161.3 151.7 159.9 165.2 159.9 178.3 C 159.9 178.3 150.2 202.6 150.2 207.1 L 175.3 216.6 C 175 193.6 180.1 155.1 180.1 155.1 Z " fill="rgb(96,47,15)"/><path d=" M 344.1 205.1 C 344.1 200.6 336.5 178.3 336.5 178.3 C 336.5 165.2 335.1 151.7 330.9 140.8 L 316.2 155.1 C 316.2 155.1 321.3 193.6 321.1 216.6 L 344.1 205.1 L 344.1 205.1 Z " fill="rgb(96,47,15)"/></g><path d=" M 348 200.1 C 348 200.1 311.4 293.8 248.1 293.8 C 184.8 293.8 152.2 200.1 152.2 200.1 L 107.1 177.1 C 107.1 294.1 170.2 327.8 248.1 327.8 C 326 327.8 389.1 295.1 389.1 177.1 L 348 200.1 L 348 200.1 Z " fill="rgb(107,70,52)"/><path d=" M 282.5 189 C 272.1 190.2 264.1 197 264.1 197 C 264.1 197 272.9 204.1 283.3 202.9 C 293.7 201.7 301.7 198.8 301.7 198.8 C 301.7 198.8 292.9 187.8 282.5 189 Z " fill="rgb(242,233,228)"/><circle vector-effect="non-scaling-stroke" cx="283.1" cy="195.9" r="6.699999999999989" fill="rgb(68,49,37)"/><path d=" M 283.3 200.7 C 272.9 201.9 264.1 197.1 264.1 197.1 C 264.1 197.1 272.9 204.2 283.3 203 C 293.7 201.8 301.7 198.9 301.7 198.9 C 301.7 198.9 293.7 199.5 283.3 200.7 Z " fill="rgb(48,22,9)"/><path d=" M 282.5 189 C 272.1 190.2 264.1 197 264.1 197 C 264.1 197 272.1 194.3 282.5 193 C 292.9 191.7 301.7 198.7 301.7 198.7 C 301.7 198.7 292.9 187.8 282.5 189 Z " fill="rgb(158,110,77)"/><path d=" M 213.3 189 C 202.9 187.8 194.1 198.8 194.1 198.8 C 194.1 198.8 202.1 201.7 212.5 202.9 C 222.9 204.1 231.7 197 231.7 197 C 231.7 197 223.7 190.2 213.3 189 Z " fill="rgb(242,233,228)"/><circle vector-effect="non-scaling-stroke" cx="212.7" cy="195.9" r="6.699999999999989" fill="rgb(68,49,37)"/><path d=" M 212.5 200.7 C 202.1 199.5 194.1 198.8 194.1 198.8 C 194.1 198.8 202.1 201.7 212.5 202.9 C 222.9 204.1 231.7 197 231.7 197 C 231.7 197 222.9 201.9 212.5 200.7 Z " fill="rgb(48,22,9)"/><path d=" M 213.3 189 C 202.9 187.8 194.1 198.8 194.1 198.8 C 194.1 198.8 202.9 191.8 213.3 193.1 C 223.7 194.4 231.7 197.1 231.7 197.1 C 231.7 197.1 223.7 190.2 213.3 189 Z " fill="rgb(158,110,77)"/><path d=" M 277.9 247.6 C 274.7 242.4 266.7 241.9 248.1 241.9 C 229.5 241.9 222.1 242.6 218.3 247.6 C 214.6 252.6 213.6 261 213.6 261 L 215.1 273.1 L 219.6 264.9 C 219.6 264.9 221.2 257.1 248 257.1 C 274.8 257.1 276.5 264.9 276.5 264.9 L 281 273.1 L 282.5 261 C 282.6 261 281 252.8 277.9 247.6 Z " fill="rgb(96,47,15)"/><path d=" M 260.1 262.1 C 256.7 261.6 239.5 261.6 236 262.1 C 230.5 262.9 222.3 269.8 222.3 271.3 C 222.3 273.8 233.8 277.3 248.1 277.3 C 262.4 277.3 273.9 273.8 273.9 271.3 C 273.9 271.3 265.6 262.9 260.1 262.1 Z " fill="rgb(178,124,87)"/><path d=" M 248.1 267 C 232.8 267 222.3 271.4 222.3 271.4 C 222.3 273.9 233.8 277.4 248.1 277.4 C 262.4 277.4 273.9 273.9 273.9 271.4 C 273.9 271.4 263.4 267 248.1 267 Z " fill="rgb(158,110,77)"/><path d=" M 248.1 220.2 C 238.3 220.2 230.3 228.9 230.3 235.3 C 230.3 241.7 238.3 243.3 248.1 243.3 C 257.9 243.3 265.9 241.7 265.9 235.3 C 265.9 228.9 257.9 220.2 248.1 220.2 Z " fill="rgb(178,124,87)"/><path d=" M 248.1 219.1 C 239.3 219.1 232.1 226.9 232.1 232.6 C 232.1 238.3 239.3 239.8 248.1 239.8 C 256.9 239.8 264.1 238.3 264.1 232.6 C 264.1 226.9 256.9 219.1 248.1 219.1 Z " fill="rgb(219,154,110)"/><path d=" M 253.3 306.4 C 252.5 307 252.1 307.3 252.1 307.3 L 252.1 365.4 C 252.1 365.4 262.4 364.8 277.4 360.3 L 277.4 322.5 L 253.3 306.4 L 253.3 306.4 Z " fill="rgb(107,70,52)"/><path d=" M 248.1 36.1 C 170.2 36.1 107.1 99.2 107.1 177.1 C 107.1 301.7 172 344 212.5 358.3 C 220.3 361.1 222.6 366.9 223.1 374.5 L 223.1 494.9 C 231.3 495.7 239.7 496.2 248.1 496.2 C 256.5 496.2 264.8 495.8 273 495 L 273 334 L 273 324.6 L 223.9 291.7 C 211.6 282 197.1 270.4 190.6 264.5 C 170.3 245.9 162 215.7 162 181.6 C 162 125 200.5 104.1 248 104.1 C 295.5 104.1 334 125 334 181.6 C 334 215.7 325.8 245.9 305.4 264.5 C 294.4 274.5 259.9 301.2 253.1 306.5 L 277.2 322.7 L 277.2 360.5 C 316.9 348.4 389.1 308.5 389.1 177.1 C 389.1 99.2 326 36.1 248.1 36.1 Z " fill="rgb(244,242,242)"/><circle vector-effect="non-scaling-stroke" cx="416.7" cy="416.69999999999993" r="77.5" fill="rgb(156,234,1)"/></g></svg>