<?xml version="1.0" encoding="UTF-8" standalone="no"?><!-- Generator: Gravit.io --><svg xmlns="http://www.w3.org/2000/svg" xmlns:xlink="http://www.w3.org/1999/xlink" style="isolation:isolate" viewBox="0 0 512 512" width="512pt" height="512pt"><defs><clipPath id="_clipPath_jcb7VQMyLWohoaq4I6SN8pmsbduTABRi"><rect width="512" height="512"/></clipPath></defs><g clip-path="url(#_clipPath_jcb7VQMyLWohoaq4I6SN8pmsbduTABRi)"><g><rect x="-1" y="-1" width="582" height="402" transform="matrix(1,0,0,1,0,0)" fill="none"/></g><g><circle vector-effect="non-scaling-stroke" cx="256" cy="256" r="256" fill="rgb(99,203,255)"/><g><path d=" M 457.731 413.632 C 410.867 473.515 337.933 511.999 256.003 511.999 C 174.073 511.999 101.139 473.515 54.275 413.632 C 61.474 385.629 75.204 359.924 93.887 338.441 C 125.819 301.713 172.233 277.283 225.314 274.598 C 245.773 273.564 266.232 273.564 286.691 274.598 C 339.772 277.283 386.186 301.713 418.118 338.441 C 436.802 359.924 450.532 385.629 457.731 413.632 L 457.731 413.632 Z " fill="rgb(255,255,255)"/><circle vector-effect="non-scaling-stroke" cx="413.78" cy="82.829" r="64.78399999999999" fill="rgb(255,255,255)"/></g><circle vector-effect="non-scaling-stroke" cx="409.161" cy="87.448" r="37.012" fill="rgb(196,196,196)"/><circle vector-effect="non-scaling-stroke" cx="98.22000000000001" cy="82.829" r="64.78400000000002" fill="rgb(255,255,255)"/><circle vector-effect="non-scaling-stroke" cx="102.839" cy="87.448" r="37.012" fill="rgb(196,196,196)"/><path d=" M 419.206 338.441 C 387.274 301.713 340.86 277.283 287.779 274.598 C 276.505 274.023 265.23 273.783 253.966 273.846 C 254.175 273.836 254.374 273.836 254.582 273.825 C 253.84 273.835 253.088 273.846 252.346 273.846 C 251.019 273.856 249.692 273.867 248.365 273.888 C 247.101 273.909 245.836 273.94 244.572 273.961 C 243.381 273.982 242.19 274.003 240.998 274.034 C 239.681 274.076 238.354 274.118 237.038 274.159 C 235.92 274.201 234.791 274.232 233.673 274.274 C 231.249 274.368 228.825 274.473 226.401 274.598 C 142.245 278.851 74.87 337.762 55.362 413.632 C 73.815 437.215 96.322 457.476 121.818 473.379 C 121.097 459.513 121.421 445.867 122.685 432.618 C 126.056 397.37 157.208 371.676 192.184 374.085 C 194.072 374.215 195.801 375.198 196.87 376.759 L 211.156 397.642 C 214.067 401.898 220.406 401.709 223.059 397.288 L 229.491 386.568 C 231.947 382.476 237.923 382.617 240.182 386.82 L 256.213 416.638 C 259.259 422.302 267.671 421.293 269.29 415.069 L 276.409 387.69 C 277.605 383.088 283.348 381.526 286.711 384.889 L 293.11 391.288 C 296.374 394.552 301.839 393.866 304.195 389.896 L 311.473 377.633 C 312.467 375.959 314.194 374.863 316.13 374.662 C 332.165 373.009 348.199 370.689 364.234 367.687 C 385.529 363.707 404.557 353.279 419.206 338.441 L 419.206 338.441 Z " fill="rgb(196,196,196)"/><path d=" M 284.954 48.85 C 265.652 47.874 246.348 47.874 227.046 48.85 C 121.787 54.174 44.33 150.122 63.048 253.839 C 64.051 259.397 65.22 264.955 66.556 270.512 C 76.167 310.516 108.417 341.311 148.856 348.88 C 220.286 362.249 291.715 362.249 363.146 348.88 C 403.586 341.311 435.835 310.516 445.446 270.512 C 446.781 264.954 447.951 259.396 448.954 253.839 C 467.67 150.122 390.213 54.174 284.954 48.85 L 284.954 48.85 Z " fill="rgb(255,255,255)"/><path d=" M 257.087 358.914 C 221.372 358.914 185.658 355.57 149.943 348.883 C 109.505 341.318 77.249 310.525 67.647 270.516 C 66.31 264.957 65.139 259.398 64.136 253.839 C 45.422 150.123 122.87 54.18 228.133 48.851 C 236.994 48.412 245.854 48.161 254.726 48.13 C 249.199 48.182 243.671 48.433 238.154 48.851 C 169.327 54.18 118.68 150.123 130.916 253.839 C 131.574 259.398 132.337 264.957 133.215 270.516 C 139.495 310.525 160.581 341.318 187.027 348.883 C 210.38 355.57 233.734 358.914 257.087 358.914 Z " fill="rgb(196,196,196)"/><path d=" M 303.483 359.117 C 271.828 364.109 240.173 364.109 208.517 359.117 C 188.848 356.015 172.997 339.354 169.956 317.743 C 168.822 309.687 168.822 301.632 169.956 293.576 C 172.997 271.966 188.848 255.305 208.517 252.202 C 240.167 247.211 271.818 247.209 303.468 252.2 C 323.557 255.367 339.418 272.699 342.21 294.82 C 343.174 302.461 343.119 310.102 342.044 317.743 C 339.004 339.353 323.152 356.014 303.483 359.117 Z " fill="rgb(230,230,230)"/><path d=" M 229.449 359.116 C 237.745 361.446 246.042 362.7 254.338 362.846 C 239.062 362.762 223.785 361.519 208.519 359.116 C 188.844 356.013 172.992 339.347 169.952 317.738 C 168.824 309.682 168.824 301.626 169.952 293.57 C 172.993 271.962 188.844 255.295 208.519 252.203 C 223.795 249.789 239.072 248.546 254.348 248.462 C 246.052 248.608 237.745 249.862 229.448 252.203 C 218.445 255.296 209.585 271.962 207.881 293.57 C 207.254 301.626 207.254 309.682 207.881 317.738 C 209.586 339.346 218.446 356.012 229.449 359.116 Z " fill="rgb(204,204,204)"/><path d=" M 291.246 270.638 C 291.246 283.412 275.466 301.111 256.001 301.111 C 236.536 301.111 220.756 283.411 220.756 270.638 C 220.756 257.864 236.536 254.852 256.001 254.852 C 275.466 254.852 291.246 257.863 291.246 270.638 Z " fill="rgb(15,15,14)"/><circle vector-effect="non-scaling-stroke" cx="273.763" cy="269.343" r="9.403999999999996" fill="rgb(128,114,114)"/><g><path d=" M 339.071 256.281 C 325.243 256.281 313.993 245.032 313.993 231.203 C 313.993 219.884 321.621 209.928 332.543 206.99 C 334.681 206.416 336.875 206.126 339.07 206.126 C 352.898 206.126 364.148 217.375 364.148 231.204 C 364.148 233.398 363.858 235.593 363.284 237.727 C 360.348 248.653 350.391 256.281 339.071 256.281 Z " fill="rgb(25,25,142)"/><path d=" M 172.929 256.281 C 159.101 256.281 147.851 245.032 147.851 231.203 C 147.851 219.884 155.479 209.928 166.401 206.99 C 168.539 206.416 170.733 206.126 172.928 206.126 C 186.756 206.126 198.006 217.375 198.006 231.204 C 198.006 233.398 197.716 235.593 197.142 237.727 C 194.204 248.653 184.247 256.281 172.929 256.281 Z " fill="rgb(25,25,142)"/></g><g><path d=" M 352.655 225.979 C 352.655 227.202 352.488 228.393 352.185 229.521 C 350.628 235.31 345.351 239.562 339.072 239.562 C 331.57 239.562 325.488 233.481 325.488 225.978 C 325.488 219.698 329.741 214.421 335.529 212.865 C 336.657 212.562 337.849 212.395 339.071 212.395 C 346.574 212.395 352.655 218.477 352.655 225.979 L 352.655 225.979 Z " fill="rgb(15,15,14)"/><circle vector-effect="non-scaling-stroke" cx="172.931" cy="225.98" r="13.584000000000003" fill="rgb(15,15,14)"/></g><g><path d=" M 352.655 225.979 C 352.655 227.202 352.488 228.393 352.185 229.521 C 350.586 230.263 348.789 230.681 346.908 230.681 C 339.98 230.681 334.369 225.07 334.369 218.142 C 334.369 216.261 334.787 214.464 335.529 212.865 C 336.657 212.562 337.849 212.395 339.071 212.395 C 346.574 212.395 352.655 218.477 352.655 225.979 L 352.655 225.979 Z " fill="rgb(230,230,230)"/><path d=" M 186.512 225.979 C 186.512 227.202 186.345 228.393 186.042 229.521 C 184.443 230.263 182.646 230.681 180.765 230.681 C 173.837 230.681 168.226 225.07 168.226 218.142 C 168.226 216.261 168.644 214.464 169.386 212.865 C 170.514 212.562 171.706 212.395 172.928 212.395 C 180.431 212.395 186.512 218.477 186.512 225.979 L 186.512 225.979 Z " fill="rgb(230,230,230)"/></g><g><path d=" M 99.541 379.98 C 102.375 375.625 109.233 377.073 109.867 382.231 C 111.037 391.77 101.652 405.144 90.298 409.469 C 78.516 413.957 92.157 391.328 99.541 379.98 L 99.541 379.98 Z " fill="rgb(255,255,255)"/><path d=" M 102.938 413.358 C 104.813 408.512 111.823 408.515 113.506 413.43 C 116.619 422.523 110.194 437.545 99.977 444.119 C 89.373 450.942 98.053 425.985 102.938 413.358 Z " fill="rgb(255,255,255)"/></g></g><circle vector-effect="non-scaling-stroke" cx="430" cy="430" r="80" fill="rgb(156,234,1)"/></g></svg>