<svg width="512" height="512" xmlns="http://www.w3.org/2000/svg">

 <g>
  <title>background</title>
  <rect fill="none" id="canvas_background" height="402" width="582" y="-1" x="-1"/>
 </g>
 <g>
  <title>Layer 1</title>
  <circle id="svg_1" fill="#63CBFF" r="256" cy="256" cx="256"/>
  <g id="svg_7">
   <path id="svg_8" fill="#ffffff" d="m457.731,413.632c-46.864,59.883 -119.798,98.367 -201.728,98.367s-154.864,-38.484 -201.728,-98.367c7.199,-28.003 20.929,-53.708 39.612,-75.191c31.932,-36.728 78.346,-61.158 131.427,-63.843c20.459,-1.034 40.918,-1.034 61.377,0c53.081,2.685 99.495,27.115 131.427,63.843c18.684,21.483 32.414,47.188 39.613,75.191z"/>
   <circle id="svg_9" fill="#ffffff" r="64.784" cy="82.829" cx="413.78"/>
  </g>
  <circle id="svg_10" fill="#c4c4c4" r="37.012" cy="87.448" cx="409.161"/>
  <circle id="svg_11" fill="#ffffff" r="64.784" cy="82.829" cx="98.22"/>
  <circle id="svg_12" fill="#c4c4c4" r="37.012" cy="87.448" cx="102.839"/>
  <path id="svg_13" fill="#c4c4c4" d="m419.205974,338.441c-31.932,-36.728 -78.346,-61.158 -131.427,-63.843c-11.274,-0.575 -22.549,-0.815 -33.813,-0.752c0.209,-0.01 0.408,-0.01 0.616,-0.021c-0.742,0.01 -1.494,0.021 -2.236,0.021c-1.327,0.01 -2.654,0.021 -3.981,0.042c-1.264,0.021 -2.529,0.052 -3.793,0.073c-1.191,0.021 -2.382,0.042 -3.574,0.073c-1.317,0.042 -2.644,0.084 -3.96,0.125c-1.118,0.042 -2.247,0.073 -3.365,0.115c-2.424,0.094 -4.848,0.199 -7.272,0.324c-84.156,4.253 -151.531,63.164 -171.039,139.034c18.453,23.583 40.96,43.844 66.456,59.747c-0.721,-13.866 -0.397,-27.512 0.867,-40.761c3.371,-35.248 34.523,-60.942 69.499,-58.533c1.888,0.13 3.617,1.113 4.686,2.674l14.286,20.883c2.911,4.256 9.25,4.067 11.903,-0.354l6.432,-10.72c2.456,-4.092 8.432,-3.951 10.691,0.252l16.031,29.818c3.046,5.664 11.458,4.655 13.077,-1.569l7.119,-27.379c1.196,-4.602 6.939,-6.164 10.302,-2.801l6.399,6.399c3.264,3.264 8.729,2.578 11.085,-1.392l7.278,-12.263c0.994,-1.674 2.721,-2.77 4.657,-2.971c16.035,-1.653 32.069,-3.973 48.104,-6.975c21.295,-3.98 40.323,-14.408 54.972,-29.246z"/>
  <path id="svg_14" fill="#ffffff" d="m284.954,48.85c-19.302,-0.976 -38.606,-0.976 -57.908,0c-105.259,5.324 -182.716,101.272 -163.998,204.989c1.003,5.558 2.172,11.116 3.508,16.673c9.611,40.004 41.861,70.799 82.3,78.368c71.43,13.369 142.859,13.369 214.29,0c40.44,-7.569 72.689,-38.364 82.3,-78.368c1.335,-5.558 2.505,-11.116 3.508,-16.673c18.716,-103.717 -58.741,-199.665 -164,-204.989z"/>
  <path id="svg_15" fill="#c4c4c4" d="m257.086974,358.914c-35.715,0 -71.429,-3.344 -107.144,-10.031c-40.438,-7.565 -72.694,-38.358 -82.296,-78.367c-1.337,-5.559 -2.508,-11.118 -3.511,-16.677c-18.714,-103.716 58.734,-199.659 163.997,-204.988c8.861,-0.439 17.721,-0.69 26.593,-0.721c-5.527,0.052 -11.055,0.303 -16.572,0.721c-68.827,5.329 -119.474,101.272 -107.238,204.988c0.658,5.559 1.421,11.118 2.299,16.677c6.28,40.009 27.366,70.802 53.812,78.367c23.353,6.687 46.707,10.031 70.06,10.031z"/>
  <path id="svg_16" fill="#E6E6E6" d="m303.483,359.117c-31.655,4.992 -63.31,4.992 -94.966,0c-19.669,-3.102 -35.52,-19.763 -38.561,-41.374c-1.134,-8.056 -1.134,-16.111 0,-24.167c3.041,-21.61 18.892,-38.271 38.561,-41.374c31.65,-4.991 63.301,-4.993 94.951,-0.002c20.089,3.167 35.95,20.499 38.742,42.62c0.964,7.641 0.909,15.282 -0.166,22.923c-3.04,21.61 -18.892,38.271 -38.561,41.374z"/>
  <path id="svg_17" fill="#CCCCCC" d="m229.449,359.116c8.296,2.33 16.593,3.584 24.889,3.73c-15.276,-0.084 -30.553,-1.327 -45.819,-3.73c-19.675,-3.103 -35.527,-19.769 -38.567,-41.378c-1.128,-8.056 -1.128,-16.112 0,-24.168c3.041,-21.608 18.892,-38.275 38.567,-41.367c15.276,-2.414 30.553,-3.657 45.829,-3.741c-8.296,0.146 -16.603,1.4 -24.9,3.741c-11.003,3.093 -19.863,19.759 -21.567,41.367c-0.627,8.056 -0.627,16.112 0,24.168c1.705,21.608 10.565,38.274 21.568,41.378z"/>
  <path id="svg_18" fill="#0F0F0E" d="m291.246,270.638c0,12.774 -15.78,30.473 -35.245,30.473c-19.465,0 -35.245,-17.7 -35.245,-30.473c0,-12.774 15.78,-15.786 35.245,-15.786s35.245,3.011 35.245,15.786z"/>
  <circle id="svg_19" fill="#807272" r="9.404" cy="269.343" cx="273.763"/>
  <g id="svg_20">
   <path id="svg_21" fill="#19198e" d="m339.071,256.281c-13.828,0 -25.078,-11.249 -25.078,-25.078c0,-11.319 7.628,-21.275 18.55,-24.213c2.138,-0.574 4.332,-0.864 6.527,-0.864c13.828,0 25.078,11.249 25.078,25.078c0,2.194 -0.29,4.389 -0.864,6.523c-2.936,10.926 -12.893,18.554 -24.213,18.554z"/>
   <path id="svg_22" fill="#19198e" d="m172.929,256.281c-13.828,0 -25.078,-11.249 -25.078,-25.078c0,-11.319 7.628,-21.275 18.55,-24.213c2.138,-0.574 4.332,-0.864 6.527,-0.864c13.828,0 25.078,11.249 25.078,25.078c0,2.194 -0.29,4.389 -0.864,6.523c-2.938,10.926 -12.895,18.554 -24.213,18.554z"/>
  </g>
  <g id="svg_23">
   <path id="svg_24" fill="#0F0F0E" d="m352.655,225.979c0,1.223 -0.167,2.414 -0.47,3.542c-1.557,5.789 -6.834,10.041 -13.113,10.041c-7.502,0 -13.584,-6.081 -13.584,-13.584c0,-6.28 4.253,-11.557 10.041,-13.113c1.128,-0.303 2.32,-0.47 3.542,-0.47c7.503,0 13.584,6.082 13.584,13.584z"/>
   <circle id="svg_25" fill="#0F0F0E" r="13.584" cy="225.98" cx="172.931"/>
  </g>
  <g id="svg_26">
   <path id="svg_27" fill="#E6E6E6" d="m352.655,225.979c0,1.223 -0.167,2.414 -0.47,3.542c-1.599,0.742 -3.396,1.16 -5.277,1.16c-6.928,0 -12.539,-5.611 -12.539,-12.539c0,-1.881 0.418,-3.678 1.16,-5.277c1.128,-0.303 2.32,-0.47 3.542,-0.47c7.503,0 13.584,6.082 13.584,13.584z"/>
   <path id="svg_28" fill="#E6E6E6" d="m186.512,225.979c0,1.223 -0.167,2.414 -0.47,3.542c-1.599,0.742 -3.396,1.16 -5.277,1.16c-6.928,0 -12.539,-5.611 -12.539,-12.539c0,-1.881 0.418,-3.678 1.16,-5.277c1.128,-0.303 2.32,-0.47 3.542,-0.47c7.503,0 13.584,6.082 13.584,13.584z"/>
  </g>
  <g id="svg_29">
   <path id="svg_30" fill="#ffffff" d="m99.541,379.98c2.834,-4.355 9.692,-2.907 10.326,2.251c1.17,9.539 -8.215,22.913 -19.569,27.238c-11.782,4.488 1.859,-18.141 9.243,-29.489z"/>
   <path id="svg_31" fill="#ffffff" d="m102.938,413.358c1.875,-4.846 8.885,-4.843 10.568,0.072c3.113,9.093 -3.312,24.115 -13.529,30.689c-10.604,6.823 -1.924,-18.134 2.961,-30.761z"/>
  </g>
  <g id="svg_32"/>
  <g id="svg_33"/>
  <g id="svg_34"/>
  <g id="svg_35"/>
  <g id="svg_36"/>
  <g id="svg_37"/>
  <g id="svg_38"/>
  <g id="svg_39"/>
  <g id="svg_40"/>
  <g id="svg_41"/>
  <g id="svg_42"/>
  <g id="svg_43"/>
  <g id="svg_44"/>
  <g id="svg_45"/>
  <g id="svg_46"/>
 </g>
</svg>