<?xml version="1.0" encoding="iso-8859-1"?>
<!-- Generator: Adobe Illustrator 19.0.0, SVG Export Plug-In . SVG Version: 6.00 Build 0)  -->
<svg version="1.1" id="Layer_1" xmlns="http://www.w3.org/2000/svg" xmlns:xlink="http://www.w3.org/1999/xlink" x="0px" y="0px"
	 viewBox="0 0 512 512" style="enable-background:new 0 0 512 512;" xml:space="preserve">
<path style="fill:#A3D5E0;" d="M511.998,255.405c0.144,64.931-23.883,124.266-63.632,169.489
	c-8.583,9.771-17.909,18.886-27.869,27.247c-42.414,35.63-96.564,57.736-155.832,59.712c-0.944,0.033-1.899,0.056-2.854,0.067
	c-1.732,0.044-3.475,0.067-5.218,0.078c-2.143,0.011-4.275-0.011-6.406-0.078c-0.7,0-1.388-0.022-2.076-0.044
	c-59.157-1.788-113.296-23.661-155.787-59.046c-9.971-8.294-19.308-17.343-27.913-27.047
	c-39.949-45.045-64.265-104.269-64.409-169.2C-0.32,115.195,114.03,0.323,255.417,0.001
	C396.793-0.321,511.676,114.018,511.998,255.405z"/>
<path style="fill:#68635B;" d="M420.499,452.139c-42.414,35.63-96.564,57.736-155.832,59.712c-2.676,0.089-5.374,0.133-8.072,0.144
	c-2.842,0.011-5.663-0.033-8.483-0.122c-46.6-1.41-90.09-15.278-127.219-38.417c-10.004-6.218-19.553-13.124-28.568-20.63
	c29.878-30.822,68.373-53.273,111.608-63.476c8.616-2.032,17.41-3.575,26.37-4.597c5.874-0.688,11.803-1.133,17.809-1.355
	c2.687-0.111,5.385-0.155,8.105-0.167c2.831-0.011,5.651,0.033,8.449,0.144C325.656,385.443,380.628,411.369,420.499,452.139z"/>
<path style="fill:#4D4D4D;" d="M230.303,384.755L218.356,399.4c0,0-63.077,25.726-97.463,74.058
	c-10.004-6.218-19.553-13.124-28.568-20.63c29.878-30.822,68.373-53.273,111.608-63.476
	C212.549,387.32,221.344,385.776,230.303,384.755z"/>
<g>
	<path style="fill:#EFC881;" d="M187.238,242.86c0-17.945-16.76-32.492-37.435-32.492s-37.435,14.547-37.435,32.492
		s16.76,45.1,37.435,45.1S187.238,260.804,187.238,242.86z"/>
	<path style="fill:#EFC881;" d="M399.64,242.86c0-17.945-16.76-32.492-37.435-32.492s-37.435,14.547-37.435,32.492
		s16.76,45.1,37.435,45.1C382.879,287.959,399.64,260.804,399.64,242.86z"/>
</g>
<g>
	<path style="fill:#E0B775;" d="M385.075,248.221c0-10.589-6.462-19.174-14.434-19.174c-7.972,0-14.434,8.584-14.434,19.174
		c0,10.589,6.462,11.957,14.434,11.957C378.613,260.178,385.075,258.81,385.075,248.221z"/>
	<path style="fill:#E0B775;" d="M155.796,248.221c0-10.589-6.462-19.174-14.434-19.174c-7.972,0-14.434,8.584-14.434,19.174
		c0,10.589,6.462,11.957,14.434,11.957C149.334,260.178,155.796,258.81,155.796,248.221z"/>
</g>
<path style="fill:#4D4D4D;" d="M358.75,336.737c0,0,21.038,13.415,25.311,51.256c0,0-84.753,2.59-128.055,45.892v78.109v-78.109
	c-43.302-43.302-128.055-45.892-128.055-45.892c4.272-37.842,25.311-51.256,25.311-51.256"/>
<path style="fill:#F9D387;" d="M371.344,211.959v66.741c0,12.602-1.654,24.793-4.741,36.296c-1.133,4.23-2.443,8.35-3.964,12.369
	c-12.524,33.676-37.706,60.101-68.995,72.037c-0.733,0.289-1.466,0.566-2.198,0.822c-11.17,4.008-23.083,6.151-35.441,6.151
	c-12.369,0-24.282-2.143-35.441-6.151c-0.744-0.255-1.477-0.533-2.21-0.822c-23.239-8.86-43.091-25.715-56.914-47.61
	c-4.797-7.583-8.86-15.766-12.08-24.427c-1.521-4.019-2.831-8.139-3.953-12.369c-3.098-11.503-4.752-23.694-4.752-36.296v-66.741
	c0-2.498,0.067-4.985,0.2-7.439c1.477-28.613,11.481-54.705,27.236-75.201c4.708-6.14,9.937-11.78,15.611-16.832
	c19.775-17.643,44.923-28.202,72.303-28.202c31.844,0,60.678,14.29,81.552,37.406c2.21,2.443,4.33,4.985,6.351,7.628
	c10.581,13.768,18.564,30.056,23.117,47.943c2.232,8.738,3.642,17.865,4.119,27.269C371.278,206.984,371.344,209.46,371.344,211.959
	z"/>
<path style="fill:#EFC881;" d="M371.145,204.531c-32.254,11.036-72.07,18.875-115.139,18.875c-43.08,0-82.896-7.839-115.15-18.886
	c1.477-28.613,11.481-54.705,27.236-75.201c1.399,0.011,2.809,0.022,4.23,0.033h167.201c1.477-0.011,2.931-0.022,4.386-0.033
	C359.664,149.826,369.668,175.918,371.145,204.531z"/>
<path style="fill:#999999;" d="M369.954,279.436c-10.193,5.429-17.276,16.122-18.897,28.524l-0.155,1.188
	c-1.521,11.68-8.005,21.729-17.276,27.591c-0.022,0.011-0.044,0.033-0.078,0.044c-4.797,3.042-10.87,3.286-15.744,0.366
	c-1.003-0.601-2.016-1.186-3.04-1.757c-2.951-1.644-5.139-4.289-6.528-7.368c-1.863-4.133-6.012-7.009-10.841-7.009
	c-0.56,0-1.11,0.039-1.649,0.113c-7.378,1.026-14.828,1.316-22.198,0.238c-5.727-0.837-11.584-1.272-17.543-1.272
	c-5.96,0-11.818,0.434-17.546,1.272c-7.378,1.079-14.836,0.788-22.222-0.239c-0.538-0.074-1.089-0.113-1.648-0.113
	c-4.833,0-8.987,2.882-10.848,7.022c-1.387,3.086-3.576,5.735-6.53,7.384c-1.013,0.565-2.015,1.145-3.008,1.74
	c-4.874,2.92-10.948,2.676-15.744-0.366c-0.033-0.022-0.056-0.044-0.089-0.055c-9.26-5.862-15.744-15.911-17.276-27.591
	l-0.155-1.188c-1.61-12.402-8.694-23.094-18.897-28.524l-1.388-0.733c0,12.602,1.654,24.793,4.752,36.296
	c1.121,4.23,2.432,8.35,3.953,12.369c3.22,8.66,7.284,16.843,12.08,24.427c2.332,3.697,4.841,7.239,7.506,10.637
	c2.62,3.342,5.396,6.529,8.316,9.549c11.68,12.102,25.637,21.529,41.093,27.425c0.733,0.289,1.466,0.566,2.21,0.822
	c5.529,1.987,11.247,3.52,17.11,4.541c0.011,0.011,0.011,0.011,0.022,0.011c5.962,1.055,12.08,1.599,18.309,1.599
	c12.358,0,24.271-2.143,35.441-6.151c0.733-0.255,1.466-0.533,2.198-0.822c15.456-5.885,29.412-15.322,41.104-27.425
	c2.92-3.02,5.696-6.207,8.316-9.549c8.139-10.359,14.778-22.184,19.575-35.064c1.521-4.019,2.831-8.139,3.964-12.369
	c3.087-11.503,4.741-23.694,4.741-36.296L369.954,279.436z"/>
<path style="fill:#808080;" d="M237.674,404.764c-5.862-1.021-11.581-2.554-17.11-4.541c-0.744-0.255-1.477-0.533-2.21-0.822
	c-15.456-5.896-29.412-15.322-41.093-27.425c-2.92-3.02-5.696-6.207-8.316-9.549c-2.665-3.398-5.174-6.939-7.506-10.637
	c-4.797-7.583-8.86-15.766-12.08-24.427c-1.521-4.019-2.831-8.139-3.953-12.369c-3.098-11.503-4.752-23.694-4.752-36.296
	l1.388,0.733c10.204,5.429,17.288,16.122,18.897,28.524l0.155,1.188c1.532,11.68,8.016,21.729,17.276,27.591
	C178.373,336.735,198.647,392.606,237.674,404.764z"/>
<path style="fill:#999999;" d="M371.344,211.959v49.353c-0.233-0.344-0.466-0.722-0.699-1.133
	c-15.644-27.891-20.285-71.504-20.285-71.504l16.666-11.414c2.232,8.738,3.642,17.865,4.119,27.269
	C371.278,206.984,371.344,209.46,371.344,211.959z"/>
<path style="fill:#808080;" d="M140.656,211.959v49.353c0.233-0.344,0.466-0.722,0.699-1.133
	c15.644-27.891,20.285-71.504,20.285-71.504l-16.666-11.414c-2.232,8.738-3.642,17.865-4.119,27.269
	C140.721,206.984,140.656,209.46,140.656,211.959z"/>
<g>
	<path style="fill:#4D4D4D;" d="M261.813,421.307v90.612c-1.732,0.044-3.475,0.067-5.218,0.078
		c-2.143,0.011-4.275-0.011-6.406-0.078v-90.612H261.813z"/>
	<circle style="fill:#4D4D4D;" cx="277.843" cy="460.167" r="6.292"/>
	<circle style="fill:#4D4D4D;" cx="277.843" cy="491.988" r="6.292"/>
	<path style="fill:#4D4D4D;" d="M320.2,239.491v22.511c0,4.213-3.408,7.62-7.62,7.62c-4.064,0-7.381-3.179-7.6-7.193
		c-0.01-0.139-0.01-0.289-0.01-0.427v-22.512c0-4.213,3.408-7.62,7.61-7.62c2.106,0,4.014,0.854,5.384,2.225
		c0.984,0.984,1.699,2.235,2.026,3.626C320.132,238.288,320.2,238.885,320.2,239.491z"/>
	<path style="fill:#4D4D4D;" d="M199.405,269.622L199.405,269.622c-4.206,0-7.617-3.41-7.617-7.617v-22.518
		c0-4.206,3.41-7.617,7.617-7.617l0,0c4.206,0,7.617,3.41,7.617,7.617v22.518C207.022,266.212,203.612,269.622,199.405,269.622z"/>
</g>
<g>
	<path style="fill:#68635B;" d="M331.091,211.886c0-10.22-8.285-18.506-18.506-18.506c-10.22,0-18.505,8.285-18.505,18.506l0,0
		C304.301,201.666,320.871,201.666,331.091,211.886L331.091,211.886z"/>
	<path style="fill:#68635B;" d="M217.911,211.886c0-10.22-8.285-18.506-18.506-18.506s-18.506,8.285-18.506,18.506l0,0
		C191.12,201.666,207.691,201.666,217.911,211.886L217.911,211.886z"/>
</g>
<g>
	<path style="fill:#666666;" d="M320.196,239.491v22.511c0,4.213-3.408,7.62-7.62,7.62c-4.064,0-7.381-3.179-7.6-7.193
		c8.524-8.763,12.845-18.11,15.01-24.707C320.126,238.288,320.196,238.885,320.196,239.491z"/>
	<path style="fill:#666666;" d="M207.015,239.491v22.511c0,4.213-3.408,7.62-7.62,7.62c-4.064,0-7.381-3.179-7.6-7.193
		c8.524-8.763,12.845-18.11,15.01-24.707C206.946,238.288,207.015,238.885,207.015,239.491z"/>
</g>
<path style="fill:#E0B775;" d="M274.085,293.123c0-0.567-0.114-1.121-0.331-1.658c-2.302-5.685-3.93-11.609-3.882-17.743
	c0.006-0.685,0.008-1.383,0.008-2.095c0-34.249-6.216-54.758-13.882-54.758c-7.667,0-13.882,20.51-13.882,54.758
	c0,0.712,0.002,1.41,0.008,2.095c0.049,6.133-1.581,12.058-3.882,17.743c-0.218,0.536-0.331,1.09-0.331,1.658
	c0,2.796,2.754,5.276,7.016,6.867c2.535,7.915,6.55,9.008,11.071,9.008c4.521,0,8.537-1.093,11.071-9.008
	C271.331,298.399,274.085,295.919,274.085,293.123z"/>
<path style="fill:#4D4D4D;" d="M297.416,332.598c-0.011,0.111-0.011,0.211-0.022,0.322c-0.044,0.633-0.111,1.266-0.211,1.888
	c-0.078,0.489-0.167,0.966-0.278,1.443c-0.078,0.344-0.167,0.688-0.255,1.033c-0.366,1.321-0.855,2.609-1.466,3.864
	c-1.943,4.064-5.063,7.728-9.071,10.77c-7.572,5.729-18.253,9.304-30.112,9.304c-11.858,0-22.539-3.575-30.112-9.304
	c-4.008-3.042-7.128-6.706-9.071-10.77c-0.611-1.255-1.099-2.543-1.466-3.864c-0.089-0.344-0.178-0.688-0.255-1.033
	c-0.111-0.477-0.2-0.955-0.278-1.443c-0.1-0.622-0.167-1.255-0.211-1.888c-0.011-0.111-0.011-0.211-0.022-0.322
	c1.454,0.289,2.931,0.566,4.441,0.822c11.159,1.932,23.705,3.009,36.973,3.009c13.268,0,25.815-1.077,36.973-3.009
	C294.486,333.164,295.962,332.887,297.416,332.598z"/>
<path style="fill:#F2F2F2;" d="M297.416,332.598c-0.011,0.111-0.011,0.211-0.022,0.322c-0.044,0.633-0.111,1.266-0.211,1.888
	c-0.078,0.489-0.167,0.966-0.278,1.443c-0.078,0.344-0.167,0.688-0.255,1.033c-0.366,1.321-0.855,2.609-1.466,3.864
	c-3.997,0.622-8.161,1.155-12.458,1.577c-8.449,0.844-17.421,1.288-26.725,1.288c-9.304,0-18.276-0.444-26.725-1.288
	c-4.297-0.422-8.461-0.955-12.458-1.577c-0.611-1.255-1.099-2.543-1.466-3.864c-0.089-0.344-0.178-0.688-0.255-1.033
	c-0.111-0.477-0.2-0.955-0.278-1.443c-0.1-0.622-0.167-1.255-0.211-1.888c-0.011-0.111-0.011-0.211-0.022-0.322
	c1.454,0.289,2.931,0.566,4.441,0.822c11.159,1.932,23.705,3.009,36.973,3.009s25.815-1.077,36.973-3.009
	C294.486,333.164,295.962,332.887,297.416,332.598z"/>
<path style="fill:#FFFFFF;" d="M292.974,333.42c-1.81,2.587-4.13,4.952-6.862,7.028c-1.066,0.811-2.198,1.577-3.386,2.276
	c-8.449,0.844-17.421,1.288-26.725,1.288c-9.304,0-18.276-0.444-26.725-1.288c-1.188-0.699-2.321-1.466-3.386-2.276
	c-2.731-2.076-5.052-4.441-6.862-7.028c11.159,1.932,23.705,3.009,36.973,3.009C269.269,336.429,281.816,335.352,292.974,333.42z"/>
<path style="fill:#808080;" d="M277.759,370.073c0-4.541-9.743,0.484-21.763,0.484s-21.763-5.024-21.763-0.484
	s9.743,8.222,21.763,8.222S277.759,374.614,277.759,370.073z"/>
<path style="fill:#666666;" d="M339.519,107.148c65.83-0.633,111.342,0.811,111.342,19.419c0,25.748-87.237,74.635-194.859,74.635
	S61.142,152.315,61.142,126.567c0-18.587,45.434-20.052,111.175-19.419"/>
<g>
	<path style="fill:#4D4D4D;" d="M339.519,107.148h37.526C365.524,106.976,352.944,107.019,339.519,107.148z"/>
	<path style="fill:#4D4D4D;" d="M116.657,126.567c0-14.812,28.851-18.75,73.839-19.419h-18.178
		c-65.741-0.633-111.175,0.833-111.175,19.419c0,25.748,87.237,74.635,194.859,74.635c9.425,0,18.69-0.382,27.758-1.084
		C189.288,192.809,116.657,150.06,116.657,126.567z"/>
</g>
<path style="fill:#666666;" d="M347.346,134.024c-29.634,10.137-60.534,15.211-91.423,15.211c-14.201,0-28.413-1.077-42.492-3.22
	c-16.544-2.52-32.921-6.518-48.931-11.991l9.171-31.511l9.959-34.231c2.965-10.182,14.201-15.467,23.938-11.247l18.897,8.183
	l29.368,12.735h0.167l48.276-20.918c9.737-4.219,20.963,1.066,23.927,11.247l9.971,34.231L347.346,134.024z"/>
<path style="fill:#4D4D4D;" d="M226.467,65.218l-13.035,80.797c-16.544-2.52-32.921-6.518-48.931-11.991l19.131-65.741
	c2.965-10.182,14.201-15.467,23.938-11.247L226.467,65.218z"/>
<path style="fill:#518EBC;" d="M347.351,134.026c-29.634,10.137-60.534,15.211-91.423,15.211c-14.201,0-28.413-1.077-42.492-3.22
	c-16.544-2.52-32.921-6.518-48.931-11.991l9.171-31.511c14.834,4.519,29.956,7.783,45.201,9.804
	c12.291,1.632,24.671,2.443,37.04,2.443c27.724,0,55.449-4.086,82.263-12.247L347.351,134.026z"/>
<path style="fill:#4783A8;" d="M218.877,112.319l-5.441,33.698c-16.544-2.52-32.921-6.518-48.931-11.991l9.171-31.511
	C188.51,107.034,203.632,110.299,218.877,112.319z"/>
<g>
</g>
<g>
</g>
<g>
</g>
<g>
</g>
<g>
</g>
<g>
</g>
<g>
</g>
<g>
</g>
<g>
</g>
<g>
</g>
<g>
</g>
<g>
</g>
<g>
</g>
<g>
</g>
<g>
</g>
</svg>
