<?xml version="1.0" encoding="UTF-8" standalone="no"?><!-- Generator: Gravit.io --><svg xmlns="http://www.w3.org/2000/svg" xmlns:xlink="http://www.w3.org/1999/xlink" style="isolation:isolate" viewBox="0 0 512 512" width="512pt" height="512pt"><defs><clipPath id="_clipPath_T3tqtH9msVYXi8wugKYyBViFjq8fdk9v"><rect width="512" height="512"/></clipPath></defs><g clip-path="url(#_clipPath_T3tqtH9msVYXi8wugKYyBViFjq8fdk9v)"><path d=" M 511.998 255.405 C 512.142 320.336 488.115 379.671 448.366 424.894 C 439.783 434.665 430.457 443.78 420.497 452.141 C 378.083 487.771 323.933 509.877 264.665 511.853 C 263.721 511.886 262.766 511.909 261.811 511.92 C 260.079 511.964 258.336 511.987 256.593 511.998 C 254.45 512.009 252.318 511.987 250.187 511.92 C 249.487 511.92 248.799 511.898 248.111 511.876 C 188.954 510.088 134.815 488.215 92.324 452.83 C 82.353 444.536 73.016 435.487 64.411 425.783 C 24.462 380.738 0.146 321.514 0.002 256.583 C -0.32 115.195 114.03 0.323 255.417 0.001 C 396.793 -0.321 511.676 114.018 511.998 255.405 Z " fill="rgb(151,111,173)"/><path d=" M 420.499 452.139 C 378.085 487.769 323.935 509.875 264.667 511.851 C 261.991 511.94 259.293 511.984 256.595 511.995 C 253.753 512.006 250.932 511.962 248.112 511.873 C 201.512 510.463 158.022 496.595 120.893 473.456 C 110.889 467.238 101.34 460.332 92.325 452.826 C 122.203 422.004 160.698 399.553 203.933 389.35 C 212.549 387.318 221.343 385.775 230.303 384.753 C 236.177 384.065 242.106 383.62 248.112 383.398 C 250.799 383.287 253.497 383.243 256.217 383.231 C 259.048 383.22 261.868 383.264 264.666 383.375 C 325.656 385.443 380.628 411.369 420.499 452.139 Z " fill="rgb(104,99,91)"/><path d=" M 230.303 384.755 L 218.356 399.4 C 218.356 399.4 155.279 425.126 120.893 473.458 C 110.889 467.24 101.34 460.334 92.325 452.828 C 122.203 422.006 160.698 399.555 203.933 389.352 C 212.549 387.32 221.344 385.776 230.303 384.755 Z " fill="rgb(77,77,77)"/><g><path d=" M 187.238 242.86 C 187.238 224.915 170.478 210.368 149.803 210.368 C 129.128 210.368 112.368 224.915 112.368 242.86 C 112.368 260.805 129.128 287.96 149.803 287.96 C 170.478 287.96 187.238 260.804 187.238 242.86 Z " fill="rgb(239,200,129)"/><path d=" M 399.64 242.86 C 399.64 224.915 382.88 210.368 362.205 210.368 C 341.53 210.368 324.77 224.915 324.77 242.86 C 324.77 260.805 341.53 287.96 362.205 287.96 C 382.879 287.959 399.64 260.804 399.64 242.86 Z " fill="rgb(239,200,129)"/></g><g><path d=" M 385.075 248.221 C 385.075 237.632 378.613 229.047 370.641 229.047 C 362.669 229.047 356.207 237.631 356.207 248.221 C 356.207 258.81 362.669 260.178 370.641 260.178 C 378.613 260.178 385.075 258.81 385.075 248.221 Z " fill="rgb(224,183,117)"/><path d=" M 155.796 248.221 C 155.796 237.632 149.334 229.047 141.362 229.047 C 133.39 229.047 126.928 237.631 126.928 248.221 C 126.928 258.81 133.39 260.178 141.362 260.178 C 149.334 260.178 155.796 258.81 155.796 248.221 Z " fill="rgb(224,183,117)"/></g><path d=" M 358.75 336.737 C 358.75 336.737 379.788 350.152 384.061 387.993 C 384.061 387.993 299.308 390.583 256.006 433.885 L 256.006 511.994 L 256.006 433.885 C 212.704 390.583 127.951 387.993 127.951 387.993 C 132.223 350.151 153.262 336.737 153.262 336.737" fill="rgb(77,77,77)"/><path d=" M 371.344 211.959 L 371.344 278.7 C 371.344 291.302 369.69 303.493 366.603 314.996 C 365.47 319.226 364.16 323.346 362.639 327.365 C 350.115 361.041 324.933 387.466 293.644 399.402 C 292.911 399.691 292.178 399.968 291.446 400.224 C 280.276 404.232 268.363 406.375 256.005 406.375 C 243.636 406.375 231.723 404.232 220.564 400.224 C 219.82 399.969 219.087 399.691 218.354 399.402 C 195.115 390.542 175.263 373.687 161.44 351.792 C 156.643 344.209 152.58 336.026 149.36 327.365 C 147.839 323.346 146.529 319.226 145.407 314.996 C 142.309 303.493 140.655 291.302 140.655 278.7 L 140.655 211.959 C 140.655 209.461 140.722 206.974 140.855 204.52 C 142.332 175.907 152.336 149.815 168.091 129.319 C 172.799 123.179 178.028 117.539 183.702 112.487 C 203.477 94.844 228.625 84.285 256.005 84.285 C 287.849 84.285 316.683 98.575 337.557 121.691 C 339.767 124.134 341.887 126.676 343.908 129.319 C 354.489 143.087 362.472 159.375 367.025 177.262 C 369.257 186 370.667 195.127 371.144 204.531 C 371.278 206.984 371.344 209.46 371.344 211.959 Z " fill="rgb(249,211,135)"/><path d=" M 371.145 204.531 C 338.891 215.567 299.075 223.406 256.006 223.406 C 212.926 223.406 173.11 215.567 140.856 204.52 C 142.333 175.907 152.337 149.815 168.092 129.319 C 169.491 129.33 170.901 129.341 172.322 129.352 L 339.523 129.352 C 341 129.341 342.454 129.33 343.909 129.319 C 359.664 149.826 369.668 175.918 371.145 204.531 Z " fill="rgb(239,200,129)"/><path d=" M 369.954 279.436 C 359.761 284.865 352.678 295.558 351.057 307.96 L 350.902 309.148 C 349.381 320.828 342.897 330.877 333.626 336.739 C 333.604 336.75 333.582 336.772 333.548 336.783 C 328.751 339.825 322.678 340.069 317.804 337.149 C 316.801 336.548 315.788 335.963 314.764 335.392 C 311.813 333.748 309.625 331.103 308.236 328.024 C 306.373 323.891 302.224 321.015 297.395 321.015 C 296.835 321.015 296.285 321.054 295.746 321.128 C 288.368 322.154 280.918 322.444 273.548 321.366 C 267.821 320.529 261.964 320.094 256.005 320.094 C 250.045 320.094 244.187 320.528 238.459 321.366 C 231.081 322.445 223.623 322.154 216.237 321.127 C 215.699 321.053 215.148 321.014 214.589 321.014 C 209.756 321.014 205.602 323.896 203.741 328.036 C 202.354 331.122 200.165 333.771 197.211 335.42 C 196.198 335.985 195.196 336.565 194.203 337.16 C 189.329 340.08 183.255 339.836 178.459 336.794 C 178.426 336.772 178.403 336.75 178.37 336.739 C 169.11 330.877 162.626 320.828 161.094 309.148 L 160.939 307.96 C 159.329 295.558 152.245 284.866 142.042 279.436 L 140.654 278.703 C 140.654 291.305 142.308 303.496 145.406 314.999 C 146.527 319.229 147.838 323.349 149.359 327.368 C 152.579 336.028 156.643 344.211 161.439 351.795 C 163.771 355.492 166.28 359.034 168.945 362.432 C 171.565 365.774 174.341 368.961 177.261 371.981 C 188.941 384.083 202.898 393.51 218.354 399.406 C 219.087 399.695 219.82 399.972 220.564 400.228 C 226.093 402.215 231.811 403.748 237.674 404.769 C 237.685 404.78 237.685 404.78 237.696 404.78 C 243.658 405.835 249.776 406.379 256.005 406.379 C 268.363 406.379 280.276 404.236 291.446 400.228 C 292.179 399.973 292.912 399.695 293.644 399.406 C 309.1 393.521 323.056 384.084 334.748 371.981 C 337.668 368.961 340.444 365.774 343.064 362.432 C 351.203 352.073 357.842 340.248 362.639 327.368 C 364.16 323.349 365.47 319.229 366.603 314.999 C 369.69 303.496 371.344 291.305 371.344 278.703 L 369.954 279.436 L 369.954 279.436 Z " fill="rgb(153,153,153)"/><path d=" M 237.674 404.764 C 231.812 403.743 226.093 402.21 220.564 400.223 C 219.82 399.968 219.087 399.69 218.354 399.401 C 202.898 393.505 188.942 384.079 177.261 371.976 C 174.341 368.956 171.565 365.769 168.945 362.427 C 166.28 359.029 163.771 355.488 161.439 351.79 C 156.642 344.207 152.579 336.024 149.359 327.363 C 147.838 323.344 146.528 319.224 145.406 314.994 C 142.308 303.491 140.654 291.3 140.654 278.698 L 142.042 279.431 C 152.246 284.86 159.33 295.553 160.939 307.955 L 161.094 309.143 C 162.626 320.823 169.11 330.872 178.37 336.734 C 178.373 336.735 198.647 392.606 237.674 404.764 Z " fill="rgb(128,128,128)"/><path d=" M 371.344 211.959 L 371.344 261.312 C 371.111 260.968 370.878 260.59 370.645 260.179 C 355.001 232.288 350.36 188.675 350.36 188.675 L 367.026 177.261 C 369.258 185.999 370.668 195.126 371.145 204.53 C 371.278 206.984 371.344 209.46 371.344 211.959 Z " fill="rgb(153,153,153)"/><path d=" M 140.656 211.959 L 140.656 261.312 C 140.889 260.968 141.122 260.59 141.355 260.179 C 156.999 232.288 161.64 188.675 161.64 188.675 L 144.974 177.261 C 142.742 185.999 141.332 195.126 140.855 204.53 C 140.721 206.984 140.656 209.46 140.656 211.959 Z " fill="rgb(128,128,128)"/><g><path d=" M 261.813 421.307 L 261.813 511.919 C 260.081 511.963 258.338 511.986 256.595 511.997 C 254.452 512.008 252.32 511.986 250.189 511.919 L 250.189 421.307 L 261.813 421.307 L 261.813 421.307 Z " fill="rgb(77,77,77)"/><circle vector-effect="non-scaling-stroke" cx="277.843" cy="460.167" r="6.291999999999973" fill="rgb(77,77,77)"/><circle vector-effect="non-scaling-stroke" cx="277.843" cy="491.988" r="6.291999999999973" fill="rgb(77,77,77)"/><path d=" M 320.2 239.491 L 320.2 262.002 C 320.2 266.215 316.792 269.622 312.58 269.622 C 308.516 269.622 305.199 266.443 304.98 262.429 C 304.97 262.29 304.97 262.14 304.97 262.002 L 304.97 239.49 C 304.97 235.277 308.378 231.87 312.58 231.87 C 314.686 231.87 316.594 232.724 317.964 234.095 C 318.948 235.079 319.663 236.33 319.99 237.721 C 320.132 238.288 320.2 238.885 320.2 239.491 Z " fill="rgb(77,77,77)"/><path d=" M 199.405 269.622 L 199.405 269.622 C 195.199 269.622 191.788 266.212 191.788 262.005 L 191.788 239.487 C 191.788 235.281 195.198 231.87 199.405 231.87 L 199.405 231.87 C 203.611 231.87 207.022 235.28 207.022 239.487 L 207.022 262.005 C 207.022 266.212 203.612 269.622 199.405 269.622 Z " fill="rgb(77,77,77)"/></g><g><path d=" M 331.091 211.886 C 331.091 201.666 322.806 193.38 312.585 193.38 C 302.365 193.38 294.08 201.665 294.08 211.886 L 294.08 211.886 C 304.301 201.666 320.871 201.666 331.091 211.886 L 331.091 211.886 L 331.091 211.886 Z " fill="rgb(104,99,91)"/><path d=" M 217.911 211.886 C 217.911 201.666 209.626 193.38 199.405 193.38 C 189.184 193.38 180.899 201.665 180.899 211.886 L 180.899 211.886 C 191.12 201.666 207.691 201.666 217.911 211.886 L 217.911 211.886 L 217.911 211.886 Z " fill="rgb(104,99,91)"/></g><g><path d=" M 320.196 239.491 L 320.196 262.002 C 320.196 266.215 316.788 269.622 312.576 269.622 C 308.512 269.622 305.195 266.443 304.976 262.429 C 313.5 253.666 317.821 244.319 319.986 237.722 C 320.126 238.288 320.196 238.885 320.196 239.491 Z " fill="rgb(102,102,102)"/><path d=" M 207.015 239.491 L 207.015 262.002 C 207.015 266.215 203.607 269.622 199.395 269.622 C 195.331 269.622 192.014 266.443 191.795 262.429 C 200.319 253.666 204.64 244.319 206.805 237.722 C 206.946 238.288 207.015 238.885 207.015 239.491 Z " fill="rgb(102,102,102)"/></g><path d=" M 274.085 293.123 C 274.085 292.556 273.971 292.002 273.754 291.465 C 271.452 285.78 269.824 279.856 269.872 273.722 C 269.878 273.037 269.88 272.339 269.88 271.627 C 269.88 237.378 263.664 216.869 255.998 216.869 C 248.331 216.869 242.116 237.379 242.116 271.627 C 242.116 272.339 242.118 273.037 242.124 273.722 C 242.173 279.855 240.543 285.78 238.242 291.465 C 238.024 292.001 237.911 292.555 237.911 293.123 C 237.911 295.919 240.665 298.399 244.927 299.99 C 247.462 307.905 251.477 308.998 255.998 308.998 C 260.519 308.998 264.535 307.905 267.069 299.99 C 271.331 298.399 274.085 295.919 274.085 293.123 Z " fill="rgb(224,183,117)"/><path d=" M 297.416 332.598 C 297.405 332.709 297.405 332.809 297.394 332.92 C 297.35 333.553 297.283 334.186 297.183 334.808 C 297.105 335.297 297.016 335.774 296.905 336.251 C 296.827 336.595 296.738 336.939 296.65 337.284 C 296.284 338.605 295.795 339.893 295.184 341.148 C 293.241 345.212 290.121 348.876 286.113 351.918 C 278.541 357.647 267.86 361.222 256.001 361.222 C 244.143 361.222 233.462 357.647 225.889 351.918 C 221.881 348.876 218.761 345.212 216.818 341.148 C 216.207 339.893 215.719 338.605 215.352 337.284 C 215.263 336.94 215.174 336.596 215.097 336.251 C 214.986 335.774 214.897 335.296 214.819 334.808 C 214.719 334.186 214.652 333.553 214.608 332.92 C 214.597 332.809 214.597 332.709 214.586 332.598 C 216.04 332.887 217.517 333.164 219.027 333.42 C 230.186 335.352 242.732 336.429 256 336.429 C 269.268 336.429 281.815 335.352 292.973 333.42 C 294.486 333.164 295.962 332.887 297.416 332.598 Z " fill="rgb(77,77,77)"/><path d=" M 297.416 332.598 C 297.405 332.709 297.405 332.809 297.394 332.92 C 297.35 333.553 297.283 334.186 297.183 334.808 C 297.105 335.297 297.016 335.774 296.905 336.251 C 296.827 336.595 296.738 336.939 296.65 337.284 C 296.284 338.605 295.795 339.893 295.184 341.148 C 291.187 341.77 287.023 342.303 282.726 342.725 C 274.277 343.569 265.305 344.013 256.001 344.013 C 246.697 344.013 237.725 343.569 229.276 342.725 C 224.979 342.303 220.815 341.77 216.818 341.148 C 216.207 339.893 215.719 338.605 215.352 337.284 C 215.263 336.94 215.174 336.596 215.097 336.251 C 214.986 335.774 214.897 335.296 214.819 334.808 C 214.719 334.186 214.652 333.553 214.608 332.92 C 214.597 332.809 214.597 332.709 214.586 332.598 C 216.04 332.887 217.517 333.164 219.027 333.42 C 230.186 335.352 242.732 336.429 256 336.429 C 269.268 336.429 281.815 335.352 292.973 333.42 C 294.486 333.164 295.962 332.887 297.416 332.598 Z " fill="rgb(242,242,242)"/><path d=" M 292.974 333.42 C 291.164 336.007 288.844 338.372 286.112 340.448 C 285.046 341.259 283.914 342.025 282.726 342.724 C 274.277 343.568 265.305 344.012 256.001 344.012 C 246.697 344.012 237.725 343.568 229.276 342.724 C 228.088 342.025 226.955 341.258 225.89 340.448 C 223.159 338.372 220.838 336.007 219.028 333.42 C 230.187 335.352 242.733 336.429 256.001 336.429 C 269.269 336.429 281.816 335.352 292.974 333.42 Z " fill="rgb(255,255,255)"/><path d=" M 277.759 370.073 C 277.759 365.532 268.016 370.557 255.996 370.557 C 243.976 370.557 234.233 365.533 234.233 370.073 C 234.233 374.613 243.976 378.295 255.996 378.295 C 268.016 378.295 277.759 374.614 277.759 370.073 Z " fill="rgb(128,128,128)"/><path d=" M 339.519 107.148 C 405.349 106.515 450.861 107.959 450.861 126.567 C 450.861 152.315 363.624 201.202 256.002 201.202 C 148.38 201.202 61.142 152.315 61.142 126.567 C 61.142 107.98 106.576 106.515 172.317 107.148" fill="rgb(102,102,102)"/><g><line x1="339.519" y1="107.148" x2="377.045" y2="107.148"/><path d=" M 116.657 126.567 C 116.657 111.755 145.508 107.817 190.496 107.148 L 172.318 107.148 C 106.577 106.515 61.143 107.981 61.143 126.567 C 61.143 152.315 148.38 201.202 256.002 201.202 C 265.427 201.202 274.692 200.82 283.76 200.118 C 189.288 192.809 116.657 150.06 116.657 126.567 Z " fill="rgb(77,77,77)"/></g><path d=" M 347.346 134.024 C 317.712 144.161 286.812 149.235 255.923 149.235 C 241.722 149.235 227.51 148.158 213.431 146.015 C 196.887 143.495 180.51 139.497 164.5 134.024 L 173.671 102.513 L 183.63 68.282 C 186.595 58.1 197.831 52.815 207.568 57.035 L 226.465 65.218 L 255.833 77.953 L 256 77.953 L 304.276 57.035 C 314.013 52.816 325.239 58.101 328.203 68.282 L 338.174 102.513 L 347.346 134.024 L 347.346 134.024 Z " fill="rgb(102,102,102)"/><path d=" M 226.467 65.218 L 213.432 146.015 C 196.888 143.495 180.511 139.497 164.501 134.024 L 183.632 68.283 C 186.597 58.101 197.833 52.816 207.57 57.036 L 226.467 65.218 L 226.467 65.218 Z " fill="rgb(77,77,77)"/><path d=" M 347.351 134.026 C 317.717 144.163 286.817 149.237 255.928 149.237 C 241.727 149.237 227.515 148.16 213.436 146.017 C 196.892 143.497 180.515 139.499 164.505 134.026 L 173.676 102.515 C 188.51 107.034 203.632 110.298 218.877 112.319 C 231.168 113.951 243.548 114.762 255.917 114.762 C 283.641 114.762 311.366 110.676 338.18 102.515 L 347.351 134.026 L 347.351 134.026 Z " fill="rgb(81,142,188)"/><path d=" M 218.877 112.319 L 213.436 146.017 C 196.892 143.497 180.515 139.499 164.505 134.026 L 173.676 102.515 C 188.51 107.034 203.632 110.299 218.877 112.319 Z " fill="rgb(71,131,168)"/><circle vector-effect="non-scaling-stroke" cx="430" cy="430" r="79.99999999999994" fill="rgb(156,234,1)"/></g></svg>