<svg id="flat" height="512" viewBox="0 0 512 512" width="512" xmlns="http://www.w3.org/2000/svg"><path d="m400 208-16-48h48v48z" fill="#c78640"/><path d="m432 240v37.08509a82.91491 82.91491 0 0 1 -82.91491 82.91491h-.00009a82.91493 82.91493 0 0 1 -51.79653-18.16924l-46.05052-36.84041 4.76205-36.99035 57.29741 47.74782a52.86146 52.86146 0 0 0 33.84107 12.25218h.00007a52.86145 52.86145 0 0 0 52.86145-52.86145v-35.13855z" fill="#c78640"/><path d="m464 176v97.55013a118.44987 118.44987 0 0 1 -118.44987 118.44987h-.00013a118.44986 118.44986 0 0 1 -73.995-25.95606l-15.555-12.44394v-44.8l41.28979 33.03184a82.91007 82.91007 0 0 0 51.79347 18.16816h.00183a82.91491 82.91491 0 0 0 82.91491-82.91491v-101.08509z" fill="#b1712c"/><path d="m280 192a15.99993 15.99993 0 0 0 -16-16h-184a15.99993 15.99993 0 0 0 -16 16 16 16 0 0 0 16 16 15.99993 15.99993 0 0 0 -16 16 16 16 0 0 0 16 16 15.99993 15.99993 0 0 0 -16 16 16 16 0 0 0 16 16 15.99993 15.99993 0 0 0 -16 16 16 16 0 0 0 16 16 15.99993 15.99993 0 0 0 -16 16 16 16 0 0 0 16 16h184a16 16 0 0 0 16-16 15.99993 15.99993 0 0 0 -16-16 16 16 0 0 0 16-16 15.99993 15.99993 0 0 0 -16-16 16 16 0 0 0 16-16 15.99993 15.99993 0 0 0 -16-16 16 16 0 0 0 16-16 15.99993 15.99993 0 0 0 -16-16 16 16 0 0 0 16-16z" fill="#d69651"/><path d="m80 176v-136a16 16 0 0 1 16-16 16 16 0 0 1 16 16 16 16 0 0 1 16-16 16 16 0 0 1 16 16 16 16 0 0 1 16-16 16 16 0 0 1 16 16 16 16 0 0 1 16-16 16 16 0 0 1 16 16v136z" fill="#c78640"/><path d="m120 176h-16v-128a8 8 0 0 1 8-8 8 8 0 0 1 8 8z" fill="#b1712c"/><path d="m152 176h-16v-128a8 8 0 0 1 8-8 8 8 0 0 1 8 8z" fill="#b1712c"/><path d="m184 176h-16v-128a8 8 0 0 1 8-8 8 8 0 0 1 8 8z" fill="#b1712c"/><path d="m272.644 24h-32.644a32 32 0 0 0 -32 32v120h56l44.37769-96.15161a39.35566 39.35566 0 0 0 3.62231-16.49239 39.35593 39.35593 0 0 0 -39.356-39.356zm2.21485 43.31042-34.85885 76.68958v-80a8 8 0 0 1 8-8h19.57593a8 8 0 0 1 7.28296 11.31042z" fill="#b1712c"/><rect fill="#d69651" height="32" rx="16" width="64" x="416" y="144"/><path d="m432 208h-32a16 16 0 0 0 -16 16 16 16 0 0 0 16 16h32z" fill="#d69651"/><path d="m432 144-16-48h64l-16 48z" fill="#b1712c"/><path d="m248 176h-16v-24a8 8 0 0 1 8-8 8 8 0 0 1 8 8z" fill="#a36522"/><g fill="#c78640"><rect height="16" rx="8" width="184" x="80" y="200"/><rect height="16" rx="8" width="184" x="80" y="232"/><rect height="16" rx="8" width="184" x="80" y="264"/><rect height="16" rx="8" width="184" x="80" y="296"/><path d="m264 336v136a16 16 0 0 1 -16 16 16 16 0 0 1 -16-16 16 16 0 0 1 -16 16 16 16 0 0 1 -16-16 16 16 0 0 1 -16 16 16 16 0 0 1 -16-16 16 16 0 0 1 -16 16 16 16 0 0 1 -16-16v-136z"/></g><path d="m224 336h16v128a8 8 0 0 1 -8 8 8 8 0 0 1 -8-8z" fill="#b1712c"/><path d="m192 336h16v128a8 8 0 0 1 -8 8 8 8 0 0 1 -8-8z" fill="#b1712c"/><path d="m160 336h16v128a8 8 0 0 1 -8 8 8 8 0 0 1 -8-8z" fill="#b1712c"/><path d="m71.35594 488h32.64406a32 32 0 0 0 32-32v-120h-56l-44.3777 96.15161a39.35551 39.35551 0 0 0 -3.6223 16.49239 39.35593 39.35593 0 0 0 39.35594 39.356zm-2.21484-43.31042 34.8589-76.68958v80a8 8 0 0 1 -8 8h-19.57594a8 8 0 0 1 -7.28296-11.31042z" fill="#b1712c"/><path d="m96 336h16v24a8 8 0 0 1 -8 8 8 8 0 0 1 -8-8z" fill="#a36522"/></svg>