<?xml version="1.0" encoding="iso-8859-1"?>
<!-- Generator: Adobe Illustrator 19.0.0, SVG Export Plug-In . SVG Version: 6.00 Build 0)  -->
<svg version="1.1" id="Capa_1" xmlns="http://www.w3.org/2000/svg" xmlns:xlink="http://www.w3.org/1999/xlink" x="0px" y="0px"
	 viewBox="0 0 512.001 512.001" style="enable-background:new 0 0 512.001 512.001;" xml:space="preserve">
<path style="fill:#787780;" d="M128.253,512c-9.521,0-19.116-0.527-28.726-1.597l-28.564-3.965
	c-34.819-3.75-62.124-30.864-66.27-65.947l-3.018-29.004c-8.672-77.285,17.944-153.281,73.008-208.359l24.653-24.36
	c5.098-5.01,12.979-5.771,18.867-1.816l101.704,67.808c3.735,2.49,6.167,6.533,6.606,11.001c0.439,4.468-1.143,8.906-4.321,12.085
	l-33.003,33.003c-12.334,12.319-20.669,28.213-23.994,45.161c17.271-3.223,32.959-11.47,45.308-24.009l33.076-33.076
	c3.179-3.193,7.72-4.702,12.085-4.321c4.482,0.439,8.525,2.871,11.016,6.621l67.808,102.012c3.955,5.947,3.164,13.872-1.89,18.911
	l-24.609,24.595C259.781,484.95,195.504,512,128.253,512z"/>
<path style="fill:#57555C;" d="M70.963,506.439l28.564,3.965c9.609,1.069,19.204,1.597,28.726,1.597
	c67.251,0,131.528-27.05,179.736-75.258l24.609-24.595c5.054-5.039,5.845-12.964,1.89-18.911L266.68,291.225
	c-2.49-3.75-6.533-6.182-11.016-6.621c-4.365-0.381-8.906,1.128-12.085,4.321L210.504,322
	c-12.281,12.469-27.872,20.676-45.029,23.936l-139.21,139.21C37.969,496.815,53.52,504.56,70.963,506.439z"/>
<path style="fill:#FE9923;" d="M166.81,362.293c-10.503,2.003-19.97-7.463-17.869-17.946c3.951-19.706,13.693-38.154,28.024-52.485
	l138.698-138.713c4.834,9.668,10.635,17.827,17.71,24.902c7.178,7.192,15.557,13.037,24.902,17.402L219.577,334.152
	C205.134,348.817,186.874,358.466,166.81,362.293z"/>
<path style="fill:#FE8821;" d="M166.81,362.294c20.065-3.827,38.324-13.477,52.767-28.141l138.698-138.698
	c-9.346-4.365-17.725-10.21-24.902-17.402c-0.002-0.002-0.005-0.005-0.007-0.007L153.308,358.102
	C156.721,361.444,161.626,363.282,166.81,362.294z"/>
<path style="fill:#57555C;" d="M334.486,72.905c-14.253,21.782-16.611,49.849-5.259,73.828c3.97,7.939,8.848,14.81,14.751,20.713
	c5.947,5.947,12.891,10.796,20.64,14.414c24.272,11.836,52.427,9.272,73.696-4.863L334.486,72.905z M396.962,219.448
	c-15.747,0-30.981-3.53-45.278-10.518c-10.693-4.995-20.493-11.851-28.916-20.273c-8.218-8.218-14.927-17.637-20.522-28.784
	c-19.043-40.269-10.767-88.315,20.464-119.868c2.813-2.842,6.636-4.438,10.635-4.453c0.015,0,0.015,0,0.029,0
	c3.984,0,7.808,1.582,10.62,4.409l127.192,127.5c5.845,5.859,5.845,15.352-0.015,21.196
	C451.322,208.521,424.955,219.448,396.962,219.448z"/>
<path style="fill:#3C3A41;" d="M351.684,208.931c14.297,6.987,29.531,10.518,45.278,10.518c27.993,0,54.36-10.928,74.209-30.791
	c5.859-5.845,5.859-15.337,0.015-21.196l-63.541-63.695l-21.215,21.215l51.885,52.017c-21.27,14.136-49.424,16.699-73.696,4.863
	c-7.749-3.618-14.692-8.467-20.64-14.414c-0.002-0.002-0.004-0.007-0.005-0.009l-21.213,21.213c0.002,0.002,0.005,0.005,0.007,0.007
	C331.191,197.08,340.99,203.936,351.684,208.931z"/>
<path style="fill:#787780;" d="M481.864,207.966c-8.364,0-15.527-2.93-21.299-8.701L312.16,50.552
	c-5.669-5.654-8.774-13.169-8.774-21.152s3.12-15.498,8.774-21.152C317.404,3.003,325.153,0,333.4,0
	c8.394,0,16.069,3.003,21.05,8.262l148.713,148.406c5.654,5.654,8.774,13.228,8.774,21.299s-3.105,15.63-8.76,21.284
	C497.406,205.036,490.243,207.966,481.864,207.966z"/>
<path style="fill:#57555C;" d="M460.566,199.265c5.771,5.771,12.935,8.701,21.299,8.701c8.379,0,15.542-2.93,21.313-8.716
	c5.654-5.654,8.76-13.213,8.76-21.284s-3.12-15.645-8.774-21.299l-74.286-74.134l-42.446,42.446L460.566,199.265z"/>
<g>
</g>
<g>
</g>
<g>
</g>
<g>
</g>
<g>
</g>
<g>
</g>
<g>
</g>
<g>
</g>
<g>
</g>
<g>
</g>
<g>
</g>
<g>
</g>
<g>
</g>
<g>
</g>
<g>
</g>
</svg>
