<svg id="Capa_1" enable-background="new 0 0 511.998 511.998" height="512" viewBox="0 0 511.998 511.998" width="512" xmlns="http://www.w3.org/2000/svg"><g><path d="m316.874 155.476h159.896v32.369h-159.896z" fill="#b4acb7" transform="matrix(.822 -.57 .57 .822 -27.08 256.764)"/><path d="m331.098 152.134h140.293v17.407h-140.293z" fill="#958b95" transform="matrix(.822 -.57 .57 .822 -20.123 257.355)"/><path d="m250.738 341.708c-.457 0-.92-.041-1.385-.125-17.214-3.115-23.44-18.488-24.326-26.181-.488-4.239 2.552-8.072 6.791-8.56 4.221-.487 8.035 2.523 8.553 6.729.16 1.171 1.799 11.009 11.734 12.806 4.199.76 6.986 4.78 6.227 8.979-.675 3.733-3.929 6.352-7.594 6.352z" fill="#958b95"/><path d="m244.12 367.474c-28.131.001-45.951-17.967-46.879-18.924l-5.378-5.548 11.096-10.756 5.36 5.53c.999 1.009 22.451 22.125 54.343 10.949 4.691-1.644 8.45-5.226 10.313-9.829 1.877-4.639 1.679-9.653-.559-14.119-3.776-7.534-9.25-15.838-16.272-24.683l-4.804-6.051 12.103-9.608 4.804 6.051c7.682 9.677 13.733 18.885 17.984 27.368 4.195 8.37 4.585 18.152 1.068 26.839-3.529 8.718-10.646 15.503-19.526 18.615-8.493 2.977-16.415 4.166-23.653 4.166z" fill="#b4acb7"/><path d="m433.88 36.952 15.243-10.572 17.621 25.405-10.08 24.549-30.568 3.644c-9.732-14.032-6.247-33.295 7.784-43.026z" fill="#665e66"/><path d="m199.405 139.283h73.043v60.64h-73.043z" fill="#544f57" transform="matrix(.822 -.57 .57 .822 -54.594 164.7)"/><path d="m164.26 240.889 135.145-93.735c4.156-2.882 9.862-1.85 12.744 2.306l46.848 67.545c2.882 4.156 1.85 9.862-2.306 12.744l-135.145 93.735-44.015-31.808z" fill="#665e66"/><path d="m283.732 131.391-126.412 87.678-24.861-35.843 126.403-87.671" fill="#b4acb7"/><path d="m271.302 113.469-126.412 87.678-12.431-17.921 126.403-87.671" fill="#958b95"/><path d="m164.259 240.891 33.051 47.652 7.083 10.212 17.153 24.73s-29.816 19.651-26.755 51.133c.457 4.696-1.279 9.342-4.639 12.654l-89.65 88.344c-15.365 15.143-40.668 12.77-52.961-4.953l-41.336-59.594c-10.65-15.355-7.27-36.402 7.675-47.607 1.874-1.401 3.817-2.85 5.831-4.324 32.374-23.776 82.476-56.633 118.003-61.593.001.001-.125-38.155 26.545-56.654z" fill="#f19028"/><path d="m150.985 316.686c-35.526 4.957-85.629 37.82-118.003 61.595-2.006 1.472-3.956 2.924-5.832 4.324-14.939 11.207-18.322 32.249-7.669 47.607l-13.27-19.132c-10.653-15.359-7.278-36.413 7.671-47.617 1.877-1.401 3.814-2.843 5.832-4.324 32.374-23.775 82.475-56.628 118.001-61.585 0 0-.129-38.165 26.547-56.658l13.27 19.132c-26.668 18.505-26.547 56.658-26.547 56.658z" fill="#f17e00"/><path d="m19.712 359.138 80.788 116.479c-15.365 15.143-40.668 12.77-52.961-4.953l-41.334-59.595c-10.65-15.355-7.27-36.402 7.675-47.607 1.875-1.401 3.818-2.85 5.832-4.324z" fill="#665e66"/><path d="m32.982 378.281c.002-.001.003-.003.005-.004l-13.274-19.139c-2.014 1.474-3.957 2.922-5.831 4.323-14.946 11.205-18.326 32.252-7.676 47.608l13.242 19.092c-10.611-15.354-7.221-36.362 7.702-47.557 1.876-1.4 3.826-2.851 5.832-4.323z" fill="#544f57"/><path d="m311.767 93.266h205.083v47.129h-205.083z" fill="#b4acb7" transform="matrix(.822 -.57 .57 .822 7.287 256.954)"/><path d="m304.059 95.677h205.083v20.08h-205.083z" fill="#958b95" transform="matrix(.822 -.57 .57 .822 12.247 250.58)"/><path d="m114.593 182.502c6.729-4.667 15.968-2.996 20.635 3.733l20.242 29.185c4.667 6.729 2.996 15.968-3.733 20.635-6.729 4.667-15.968 2.996-20.635-3.733l-20.242-29.185c-4.667-6.729-2.996-15.967 3.733-20.635z" fill="#665e66"/><path d="m123.159 220.865-12.293-17.723c-4.67-6.734-2.999-15.974 3.727-20.639s15.966-2.993 20.636 3.741l12.293 17.723c-4.665-6.725-13.905-8.398-20.631-3.733-6.725 4.665-8.396 13.905-3.732 20.631z" fill="#544f57"/><path d="m264.44 78.571c6.729-4.667 15.968-2.996 20.635 3.733l20.242 29.185c4.667 6.729 2.996 15.968-3.733 20.635-6.729 4.667-15.968 2.996-20.635-3.733l-20.242-29.185c-4.668-6.729-2.997-15.968 3.733-20.635z" fill="#665e66"/><path d="m273.006 116.933-12.293-17.723c-4.671-6.734-2.999-15.974 3.727-20.639s15.966-2.993 20.636 3.741l12.293 17.723c-4.665-6.725-13.905-8.398-20.63-3.733-6.726 4.665-8.398 13.906-3.733 20.631z" fill="#544f57"/><path d="m304.64 212.498-69.761 48.386c-5.728 3.973-13.593 2.55-17.566-3.178-3.973-5.728-2.55-13.593 3.178-17.566l69.761-48.386c5.728-3.973 13.593-2.55 17.566 3.178 3.973 5.728 2.55 13.593-3.178 17.566z" fill="#544f57"/><path d="m254.91 254.722c-2.448 0-4.855-1.16-6.356-3.323l-14.388-20.744c-2.432-3.507-1.561-8.32 1.945-10.752 3.507-2.434 8.321-1.56 10.752 1.945l14.388 20.744c2.433 3.507 1.561 8.32-1.946 10.752-1.342.931-2.877 1.378-4.395 1.378z" fill="#b4acb7"/></g></svg>