<svg height="682pt" viewBox="-21 -116 682.66669 682" width="682pt" xmlns="http://www.w3.org/2000/svg"><path d="m75 144h112.5v150h-112.5zm0 0" fill="#ff9100"/><path d="m75 219h112.5v75h-112.5zm0 0" fill="#ff641a"/><path d="m640 219-9.375 11.625c-51.375 64.128906-122.25 100.875-204.375 100.875h-11.25l-37.5-37.5v-150l37.5-37.5h11.25c82.125 0 153.003906 36.75 204.375 100.875zm0 0" fill="#ff9100"/><path d="m640 219-9.375 11.625c-51.375 64.128906-122.25 100.875-204.375 100.875h-11.25l-37.5-37.5v-75zm0 0" fill="#ff641a"/><path d="m0 406.5h150v37.5h-150zm0 0" fill="#dce1eb"/><path d="m0-6h150v37.5h-150zm0 0" fill="#dce1eb"/><path d="m0 106.5v225h112.5v-225zm0 0" fill="#fdbf00"/><path d="m0 219h112.5v112.5h-112.5zm0 0" fill="#ff9100"/><path d="m150 106.5h265v225h-265zm0 0" fill="#fdbf00"/><path d="m150 219h265v112.5h-265zm0 0" fill="#ff9100"/></svg>