<svg height="512pt" viewBox="0 -34 512.00036 512" width="512pt" xmlns="http://www.w3.org/2000/svg"><path d="m343.054688 182.113281c-2.5-5.003906-7.613282-8.164062-13.207032-8.164062h-20.496094l34.027344-77.773438c1.996094-4.566406 1.558594-9.832031-1.171875-14.003906-2.726562-4.171875-7.375-6.683594-12.359375-6.683594h-114.875c-6.777344 0-12.683594 4.609375-14.328125 11.183594l-32.820312 131.285156c-1.101563 4.410157-.109375 9.085938 2.6875 12.671875 2.800781 3.585938 7.09375 5.679688 11.640625 5.679688h21.425781l-11.503906 115.042968c-.660157 6.597657 3.15625 12.824219 9.332031 15.230469 1.746094.679688 3.5625 1.007813 5.359375 1.007813 4.546875 0 8.964844-2.105469 11.816406-5.90625l123.078125-164.105469c3.359375-4.472656 3.898438-10.460937 1.394532-15.464844zm0 0" fill="#ffd54f"/><path d="m506.957031 190.730469c-6.140625-5.371094-15.46875-4.75-20.84375 1.390625l-9.363281 10.703125c-4.332031-52.113281-26.699219-100.535157-64.097656-137.9375-41.84375-41.839844-97.476563-64.886719-156.652344-64.886719-44.742188 0-87.859375 13.277344-124.6875 38.398438-35.941406 24.511718-63.675781 58.65625-80.203125 98.742187-3.109375 7.539063.484375 16.175781 8.023437 19.28125 7.539063 3.113281 16.175782-.480469 19.285157-8.023437 29.773437-72.203126 99.476562-118.859376 177.582031-118.859376 98.800781 0 180.394531 75.011719 190.855469 171.074219l-7.433594-8.492187c-5.371094-6.140625-14.703125-6.761719-20.839844-1.390625-6.140625 5.371093-6.761719 14.703125-1.390625 20.839843l34.460938 39.386719c2.804687 3.203125 6.859375 5.042969 11.117187 5.042969 4.257813 0 8.308594-1.839844 11.113281-5.042969l34.460938-39.386719c5.375-6.136718 4.75-15.46875-1.386719-20.839843zm0 0" fill="#ece8e7"/><path d="m452.867188 286.652344c-7.539063-3.109375-16.175782.484375-19.285157 8.023437-29.773437 72.207031-99.476562 118.863281-177.582031 118.863281-98.800781 0-180.394531-75.015624-190.855469-171.078124l7.433594 8.496093c2.917969 3.335938 7.007813 5.042969 11.121094 5.042969 3.453125 0 6.917969-1.203125 9.71875-3.652344 6.136719-5.371094 6.761719-14.703125 1.390625-20.84375l-34.460938-39.382812c-2.804687-3.207032-6.855468-5.042969-11.117187-5.042969-4.257813 0-8.308594 1.835937-11.113281 5.042969l-34.464844 39.382812c-5.371094 6.140625-4.746094 15.472656 1.390625 20.84375s15.46875 4.746094 20.84375-1.390625l9.363281-10.707031c4.332031 52.117188 26.699219 100.539062 64.097656 137.941406 41.84375 41.839844 97.476563 64.886719 156.652344 64.886719 44.742188 0 87.859375-13.28125 124.6875-38.398437 35.941406-24.511719 63.671875-58.65625 80.203125-98.742188 3.109375-7.542969-.484375-16.175781-8.023437-19.285156zm0 0" fill="#ece8e7"/><path d="m343.054688 182.113281c-2.5-5.003906-7.613282-8.164062-13.207032-8.164062h-20.496094l34.027344-77.773438c1.996094-4.566406 1.558594-9.832031-1.171875-14.003906-2.726562-4.171875-7.375-6.683594-12.359375-6.683594h-73.847656v236.304688l85.664062-114.214844c3.355469-4.472656 3.894532-10.460937 1.390626-15.464844zm0 0" fill="#ffb300"/><g fill="#ded6d4"><path d="m506.957031 190.730469c-6.140625-5.371094-15.46875-4.75-20.84375 1.390625l-9.363281 10.703125c-4.332031-52.113281-26.699219-100.535157-64.097656-137.9375-41.84375-41.839844-97.476563-64.886719-156.652344-64.886719v29.539062c98.800781 0 180.394531 75.011719 190.855469 171.074219l-7.433594-8.492187c-5.371094-6.140625-14.703125-6.761719-20.839844-1.390625-6.140625 5.371093-6.761719 14.703125-1.390625 20.839843l34.460938 39.386719c2.804687 3.203125 6.859375 5.042969 11.117187 5.042969 4.257813 0 8.308594-1.839844 11.113281-5.042969l34.460938-39.386719c5.375-6.136718 4.75-15.46875-1.386719-20.839843zm0 0"/><path d="m452.867188 286.652344c-7.539063-3.109375-16.175782.484375-19.285157 8.023437-29.773437 72.207031-99.476562 118.863281-177.582031 118.863281v29.539063c44.742188 0 87.859375-13.28125 124.6875-38.398437 35.941406-24.511719 63.671875-58.65625 80.203125-98.742188 3.109375-7.542969-.484375-16.175781-8.023437-19.285156zm0 0"/></g></svg>